<svg width="372" height="181" viewBox="0 0 372 181" fill="none" xmlns="http://www.w3.org/2000/svg">
<rect width="372" height="180" rx="10" fill="url(#paint0_linear_406_1126)"/>
<mask id="mask0_406_1126" style="mask-type:alpha" maskUnits="userSpaceOnUse" x="0" y="0" width="372" height="180">
<rect width="372" height="180" rx="10" fill="url(#paint1_linear_406_1126)"/>
</mask>
<g mask="url(#mask0_406_1126)">
<path opacity="0.2" fill-rule="evenodd" clip-rule="evenodd" d="M230.125 161.1C230.125 132.45 253.35 109.225 282 109.225C310.65 109.225 333.875 132.45 333.875 161.1V237.875H230.125V161.1ZM346.325 161.1V237.875H365C368.438 237.875 371.225 240.662 371.225 244.1C371.225 247.538 368.438 250.325 365 250.325H308.896C307.837 264.253 296.2 275.225 282 275.225C267.8 275.225 256.163 264.253 255.104 250.325H199C195.562 250.325 192.775 247.538 192.775 244.1C192.775 240.662 195.562 237.875 199 237.875H217.675V161.1C217.675 125.574 246.474 96.7749 282 96.7749C317.526 96.7749 346.325 125.574 346.325 161.1ZM282 262.775C274.683 262.775 268.629 257.364 267.622 250.325H296.378C295.371 257.364 289.317 262.775 282 262.775Z" fill="#FBA94E"/>
</g>
<path d="M88.872 35.432H92.248V33.992H93.096V35.432H96.84V33.976H97.688V35.432H101.192V36.232H97.688V37.912H102.056V38.696H95.416V40.152H100.136V45.528H89.864V40.152H94.584V38.696H87.96V37.912H92.248V36.232H88.872V35.432ZM96.84 37.912V36.232H93.096V37.912H96.84ZM99.304 44.76V43.176H95.416V44.76H99.304ZM94.584 44.76V43.176H90.696V44.76H94.584ZM90.696 42.456H94.584V40.904H90.696V42.456ZM95.416 40.904V42.456H99.304V40.904H95.416ZM96.824 45.912C98.744 46.424 100.488 47.064 102.072 47.832L101.592 48.536C99.896 47.704 98.168 47.032 96.392 46.552L96.824 45.912ZM92.92 45.8L93.432 46.408C92.088 47.256 90.392 47.96 88.328 48.52L87.944 47.752C89.944 47.272 91.608 46.616 92.92 45.8ZM110.872 39.416H106.712V42.6H110.872V39.416ZM111.72 42.6H115.816V39.416H111.72V42.6ZM108.088 36.344C107.032 37.528 105.784 38.584 104.344 39.48L103.768 38.776C105.912 37.464 107.624 35.832 108.888 33.864L109.768 34.072C109.448 34.584 109.112 35.08 108.744 35.544H114.696V36.216C114.024 37.16 113.336 37.944 112.648 38.584H116.68V43.432H106.712V46.696C106.712 47.192 106.984 47.448 107.528 47.464H115.496C116.072 47.448 116.472 47.256 116.696 46.888C116.888 46.568 117.032 45.848 117.128 44.728L117.976 44.984C117.88 46.04 117.72 46.808 117.512 47.272C117.192 47.944 116.6 48.296 115.72 48.312H107.24C106.296 48.312 105.832 47.864 105.832 46.968V38.584H111.48C112.216 37.944 112.92 37.192 113.576 36.344H108.088ZM126.344 34.712H134.216V35.544H130.888C130.808 36.248 130.696 36.936 130.536 37.576H133.608V44.968H132.792V38.376H127.848V44.968H127.032V37.576H129.688C129.848 36.936 129.96 36.248 130.04 35.544H126.344V34.712ZM131.32 45.048C132.536 46.008 133.544 46.984 134.376 47.944L133.768 48.536C133.016 47.608 132.008 46.632 130.744 45.592L131.32 45.048ZM129.864 39.384H130.696V42.28C130.664 43.976 130.296 45.32 129.592 46.328C128.888 47.272 127.736 48.008 126.168 48.536L125.672 47.8C127.208 47.304 128.296 46.616 128.952 45.752C129.528 44.856 129.832 43.704 129.864 42.28V39.384ZM121.32 36.68C121.784 37.128 122.2 37.544 122.584 37.928C123.24 37.224 123.832 36.424 124.36 35.528H120.2V34.712H125.32V35.4C124.648 36.584 123.912 37.624 123.112 38.504C123.464 38.888 123.752 39.256 124.008 39.576H125.784V40.12C125.512 41.368 125.192 42.344 124.84 43.048L124.12 42.76C124.44 42.104 124.712 41.32 124.968 40.392H122.952V47.368C122.952 48.104 122.584 48.488 121.864 48.488H120.344L120.152 47.688C120.648 47.72 121.112 47.752 121.56 47.752C121.928 47.752 122.12 47.544 122.12 47.16V40.392H119.752V39.576H123.048C122.392 38.792 121.592 37.96 120.664 37.08L121.32 36.68ZM136.184 34.68H138.2V33.896H138.952V34.68H140.904V33.896H141.656V34.68H143.64V35.352H141.656V36.184H140.904V35.352H138.952V36.184H138.2V35.352H136.184V34.68ZM137.592 37.96H140.904V39.976H141.352C141.752 39.944 142.008 39.768 142.12 39.448C142.216 39.128 142.28 38.408 142.312 37.256H137.72C137.368 37.992 136.888 38.584 136.296 39.064L135.832 38.504C136.616 37.864 137.144 37 137.432 35.912L138.168 36.04L137.976 36.632H143.112C143.112 38.456 142.984 39.56 142.76 39.96C142.68 40.072 142.6 40.168 142.52 40.248L143.08 40.168C143.272 40.488 143.448 40.84 143.608 41.256H149.88V41.912H136.136V41.256H142.776C142.616 40.936 142.472 40.648 142.312 40.392C142.088 40.488 141.832 40.552 141.544 40.568H140.856L140.712 40.072H137.592V37.96ZM140.232 39.56V38.488H138.28V39.56H140.232ZM145.432 35.72C145.368 35.864 145.288 36.008 145.224 36.136C145.448 36.936 145.912 37.624 146.632 38.216C147.304 37.544 147.752 36.712 147.976 35.72H145.432ZM144.776 36.888C144.44 37.352 144.072 37.768 143.688 38.12L143.208 37.512C144.2 36.584 144.872 35.352 145.224 33.816L146.024 33.944C145.928 34.296 145.832 34.648 145.72 34.984H149.672V35.72H148.744C148.488 36.936 147.992 37.912 147.256 38.68C148.008 39.16 148.936 39.576 150.04 39.912L149.64 40.6C148.44 40.216 147.464 39.736 146.696 39.192C145.896 39.8 144.936 40.248 143.816 40.536L143.48 39.816C144.52 39.576 145.384 39.208 146.072 38.696C145.464 38.152 145.032 37.544 144.776 36.888ZM138.088 42.824H148.056V43.4H138.088V42.824ZM138.088 44.264H148.056V44.84H138.088V44.264ZM148.52 45.736V48.68H147.672V48.168H138.52V48.68H137.672V45.736H148.52ZM138.52 47.544H147.672V46.36H138.52V47.544ZM159.448 33.992C159.448 35.352 159.4 36.52 159.336 37.496C160.232 41.944 162.584 45.336 166.36 47.672L165.784 48.408C162.344 46.184 160.088 43.176 159.032 39.4C158.152 43.032 155.864 46.04 152.152 48.424L151.624 47.656C156.088 44.872 158.392 41.192 158.552 36.584C158.552 35.464 158.568 34.6 158.568 33.992H159.448ZM177.432 37.352C177.336 37.688 177.256 38.008 177.176 38.312C177.608 40.296 178.168 42.024 178.872 43.464C179.592 41.72 179.976 39.688 180.024 37.352H177.432ZM178.472 44.328C177.768 42.984 177.208 41.416 176.76 39.656C176.44 40.52 176.088 41.272 175.704 41.944L175.16 41.272C176.136 39.448 176.792 37 177.144 33.912L178.008 34.072C177.896 34.936 177.768 35.736 177.624 36.504H181.976V37.352H180.824C180.76 40.104 180.264 42.424 179.336 44.344C180.2 45.864 181.24 47.032 182.424 47.848L181.928 48.552C180.744 47.72 179.752 46.584 178.92 45.144C178.136 46.488 177.128 47.624 175.88 48.52L175.416 47.8C176.696 46.888 177.72 45.736 178.472 44.328ZM170.872 41.4L171.704 41.496C171.576 41.848 171.448 42.184 171.32 42.504H174.744V43.208C174.36 44.328 173.704 45.304 172.808 46.104C173.64 46.472 174.456 46.872 175.224 47.288L174.76 47.976C173.992 47.528 173.112 47.08 172.152 46.648C171.08 47.432 169.736 48.056 168.136 48.52L167.72 47.8C169.128 47.4 170.328 46.888 171.304 46.28C170.568 45.96 169.784 45.64 168.968 45.336C169.416 44.6 169.8 43.912 170.12 43.256H168.072V42.504H170.456C170.616 42.12 170.744 41.752 170.872 41.4ZM172.008 45.768C172.904 45.048 173.544 44.216 173.944 43.256H170.984C170.696 43.864 170.36 44.456 170.008 45C170.696 45.24 171.368 45.496 172.008 45.768ZM169.16 34.328C169.56 34.952 169.912 35.624 170.232 36.36L169.576 36.648C169.24 35.864 168.872 35.16 168.456 34.552L169.16 34.328ZM174.248 34.232L174.888 34.536C174.568 35.256 174.152 35.96 173.656 36.664L173.016 36.328C173.528 35.624 173.944 34.92 174.248 34.232ZM168.12 37.112H171.288V33.992H172.104V37.112H175.128V37.896H172.104V38.088C173 38.584 173.928 39.144 174.856 39.784L174.392 40.472C173.496 39.736 172.728 39.16 172.104 38.744V41.048H171.288V37.896H171.24C170.728 39.176 169.752 40.296 168.28 41.256L167.832 40.536C169.192 39.768 170.104 38.888 170.584 37.896H168.12V37.112Z" fill="#1B2A52"/>
<path fill-rule="evenodd" clip-rule="evenodd" d="M54.5 24C47.3563 24 41.5652 29.7911 41.5652 36.9348V49.8696H39.2826C38.022 49.8696 37 50.8915 37 52.1522C37 53.4128 38.022 54.4348 39.2826 54.4348H49.7931C50.4352 56.422 52.2993 57.8587 54.5 57.8587C56.7007 57.8587 58.5648 56.422 59.2069 54.4348H69.7174C70.9781 54.4348 72 53.4128 72 52.1522C72 50.8915 70.9781 49.8696 69.7174 49.8696H67.4348V36.9348C67.4348 29.7911 61.6437 24 54.5 24Z" fill="#FCB05C"/>
<g filter="url(#filter0_b_406_1126)">
<rect x="36" y="50" width="37" height="5" rx="2.5" fill="white" fill-opacity="0.2"/>
<rect x="36.5" y="50.5" width="36" height="4" rx="2" stroke="white"/>
</g>
<path d="M153.036 113.304H158.668V159H151.18V122.328C148.428 124.824 144.972 126.68 140.748 127.896V120.472C142.796 119.96 144.972 119.064 147.276 117.784C149.58 116.376 151.5 114.904 153.036 113.304ZM183.638 112.408C188.95 112.408 193.11 114.584 196.118 119.064C198.934 123.288 200.342 128.984 200.342 136.152C200.342 143.32 198.934 149.016 196.118 153.24C193.11 157.656 188.95 159.896 183.638 159.896C178.262 159.896 174.102 157.656 171.158 153.24C168.342 149.016 166.934 143.32 166.934 136.152C166.934 128.984 168.342 123.288 171.158 119.064C174.102 114.584 178.262 112.408 183.638 112.408ZM183.638 118.744C179.99 118.744 177.43 120.728 175.958 124.824C174.934 127.576 174.422 131.352 174.422 136.152C174.422 140.888 174.934 144.664 175.958 147.48C177.43 151.512 179.99 153.56 183.638 153.56C187.222 153.56 189.782 151.512 191.318 147.48C192.342 144.664 192.854 140.888 192.854 136.152C192.854 131.352 192.342 127.576 191.318 124.824C189.782 120.728 187.222 118.744 183.638 118.744Z" fill="url(#paint2_linear_406_1126)"/>
<path d="M225.568 141.664H226.432V151.552H225.568V141.664ZM225.6 136.976H226.4C227.744 139.232 230.08 141.216 233.376 142.928L232.864 143.696C229.792 142.112 227.504 140.144 226 137.808C224.176 140.4 221.888 142.384 219.136 143.792L218.624 143.008C221.632 141.472 223.968 139.456 225.6 136.976Z" fill="#1B2A52"/>
<line x1="4.37114e-08" y1="79.5" x2="372" y2="79.5" stroke="#BFD8FC"/>
<defs>
<filter id="filter0_b_406_1126" x="32" y="46" width="45" height="13" filterUnits="userSpaceOnUse" color-interpolation-filters="sRGB">
<feFlood flood-opacity="0" result="BackgroundImageFix"/>
<feGaussianBlur in="BackgroundImageFix" stdDeviation="2"/>
<feComposite in2="SourceAlpha" operator="in" result="effect1_backgroundBlur_406_1126"/>
<feBlend mode="normal" in="SourceGraphic" in2="effect1_backgroundBlur_406_1126" result="shape"/>
</filter>
<linearGradient id="paint0_linear_406_1126" x1="186" y1="0" x2="186" y2="180" gradientUnits="userSpaceOnUse">
<stop stop-color="white"/>
<stop offset="1" stop-color="white" stop-opacity="0"/>
</linearGradient>
<linearGradient id="paint1_linear_406_1126" x1="186" y1="0" x2="186" y2="180" gradientUnits="userSpaceOnUse">
<stop stop-color="white"/>
<stop offset="1" stop-color="white" stop-opacity="0"/>
</linearGradient>
<linearGradient id="paint2_linear_406_1126" x1="170.5" y1="91" x2="170.5" y2="181" gradientUnits="userSpaceOnUse">
<stop stop-color="#F99C34"/>
<stop offset="1" stop-color="#FFC88B"/>
</linearGradient>
</defs>
</svg>
