<svg width="372" height="181" viewBox="0 0 372 181" fill="none" xmlns="http://www.w3.org/2000/svg">
<rect width="372" height="180" rx="10" fill="url(#paint0_linear_406_1071)"/>
<mask id="mask0_406_1071" style="mask-type:alpha" maskUnits="userSpaceOnUse" x="0" y="0" width="372" height="180">
<rect width="372" height="180" rx="10" fill="url(#paint1_linear_406_1071)"/>
</mask>
<g mask="url(#mask0_406_1071)">
<path fill-rule="evenodd" clip-rule="evenodd" d="M289.412 96.9291C287.306 95.6903 284.694 95.6903 282.588 96.9291L206.318 141.793C204.262 143.002 203 145.208 203 147.593V237.323C203 239.708 204.262 241.915 206.318 243.124L282.588 287.99C284.694 289.229 287.306 289.229 289.412 287.99L365.682 243.124C367.738 241.915 369 239.708 369 237.323V147.593C369 145.208 367.738 143.002 365.682 141.793L289.412 96.9291ZM216.459 233.474V151.442L286 110.537L355.541 151.442V233.474L286 274.381L216.459 233.474ZM292.73 183.486C292.73 179.77 289.717 176.757 286 176.757C282.283 176.757 279.27 179.77 279.27 183.486V219.378C279.27 223.095 282.283 226.108 286 226.108C289.717 226.108 292.73 223.095 292.73 219.378V183.486ZM321.892 158.811C325.609 158.811 328.622 161.824 328.622 165.54V219.378C328.622 223.095 325.609 226.108 321.892 226.108C318.175 226.108 315.162 223.095 315.162 219.378V165.54C315.162 161.824 318.175 158.811 321.892 158.811ZM256.838 201.432C256.838 197.715 253.825 194.702 250.108 194.702C246.391 194.702 243.378 197.715 243.378 201.432V219.378C243.378 223.095 246.391 226.108 250.108 226.108C253.825 226.108 256.838 223.095 256.838 219.378V201.432Z" fill="#F99C34" fill-opacity="0.2"/>
</g>
<path d="M88.04 38.856H93.432C93.784 38.376 94.056 37.88 94.248 37.368C92.808 37.432 91.304 37.48 89.736 37.528L89.592 36.76C90.728 36.408 92.056 35.48 93.56 33.944L94.408 34.232C93.368 35.32 92.344 36.152 91.32 36.76C93.784 36.68 96.072 36.568 98.184 36.408C97.64 35.928 97.08 35.432 96.472 34.936L97.144 34.504C98.728 35.768 99.944 36.872 100.792 37.832L100.072 38.312C99.72 37.912 99.336 37.512 98.92 37.096C97.72 37.176 96.456 37.256 95.144 37.32C94.952 37.864 94.696 38.376 94.392 38.856H101.832V39.656H97.624C98.616 40.76 100.184 41.624 102.312 42.248L101.928 43.048C99.464 42.184 97.72 41.064 96.712 39.656H93.8C92.552 41.096 90.648 42.264 88.12 43.144L87.736 42.376C89.944 41.704 91.624 40.792 92.744 39.656H88.04V38.856ZM95.144 40.424L95.848 40.84C94.76 42.168 93.112 43.224 90.872 44.008L90.472 43.304C92.6 42.584 94.152 41.624 95.144 40.424ZM99.288 42.872L100.04 43.224C98.584 45.848 95.416 47.688 90.52 48.728L90.008 48.04C94.872 46.984 97.96 45.272 99.288 42.872ZM97.192 41.736L97.88 42.184C96.04 44.296 93.672 45.624 90.776 46.152L90.28 45.464C93.24 44.984 95.544 43.736 97.192 41.736ZM106.712 33.896L107.576 33.96L107.336 36.248H117.24V37.096H107.256L106.952 39.944H116.024C116.024 44.2 115.72 46.664 115.144 47.336C114.536 47.976 113.272 48.312 111.352 48.312C110.856 48.312 110.344 48.296 109.816 48.28L109.56 47.48C110.328 47.512 110.856 47.544 111.16 47.544C113.048 47.544 114.184 47.224 114.568 46.584C114.952 45.912 115.16 43.96 115.16 40.76H105.976L106.712 33.896ZM103.816 43.592H112.888V44.44H103.816V43.592ZM125.816 40.408V41.256C125.016 41.624 124.2 41.96 123.368 42.264V47.192C123.368 47.992 122.952 48.408 122.136 48.408H120.44L120.248 47.576C120.808 47.608 121.336 47.64 121.832 47.64C122.28 47.64 122.504 47.416 122.504 46.984V42.568C121.624 42.856 120.728 43.128 119.832 43.368L119.624 42.536C120.616 42.312 121.576 42.056 122.504 41.752V37.848H119.864V37H122.504V34.008H123.368V37H125.576V37.848H123.368V41.448C124.2 41.128 125.016 40.792 125.816 40.408ZM126.136 35.304H134.104V36.168H131.384V47.032C131.384 47.944 130.936 48.408 130.072 48.408H127.48L127.288 47.56C128.152 47.592 128.984 47.624 129.768 47.624C130.264 47.624 130.52 47.352 130.52 46.808V36.168H126.136V35.304ZM140.936 34.328L141.672 34.776C140.936 36.12 140.184 37.224 139.416 38.088C138.568 39.048 137.496 39.944 136.216 40.808L135.736 40.04C136.888 39.368 137.896 38.536 138.76 37.528C139.56 36.616 140.296 35.544 140.936 34.328ZM141.496 41.272H138.088V40.424H147.528C147.48 42.376 147.384 43.96 147.24 45.176C147.08 46.36 146.824 47.208 146.472 47.688C146.12 48.152 145.544 48.408 144.744 48.44H141.912L141.688 47.592C142.616 47.608 143.48 47.624 144.312 47.624C145.208 47.624 145.8 47.224 146.088 46.456C146.376 45.64 146.568 43.912 146.664 41.272H142.344C141.96 43.08 141.432 44.504 140.728 45.56C139.912 46.68 138.696 47.704 137.064 48.6L136.52 47.896C138.024 47.08 139.144 46.184 139.912 45.208C140.616 44.216 141.144 42.904 141.496 41.272ZM145.16 34.104C146.12 36.632 147.8 38.616 150.2 40.056L149.624 40.744C147.128 39.16 145.384 37.08 144.408 34.52L145.16 34.104ZM154.2 34.008H155.048V37.128H157.016V37.976H155.048V39.32C155.848 40.152 156.648 41.096 157.448 42.136L156.952 42.872C156.216 41.752 155.576 40.888 155.048 40.248V48.552H154.2V39.976C153.656 41.688 152.936 43.224 152.024 44.568L151.64 43.656C152.856 41.976 153.704 40.088 154.184 37.976H152.136V37.128H154.2V34.008ZM158.92 41.24L159.72 41.4C159.192 43.64 158.44 45.576 157.448 47.208L156.68 46.728C157.688 45.096 158.44 43.272 158.92 41.24ZM164.408 41.16C165.112 42.984 165.72 44.92 166.232 46.984L165.432 47.352C164.888 45.112 164.28 43.144 163.64 41.432L164.408 41.16ZM160.984 48.392H159.352L159.176 47.576C159.704 47.608 160.216 47.64 160.696 47.64C161.144 47.64 161.384 47.384 161.384 46.904V39.768H157.384V38.92H166.28V39.768H162.248V47.112C162.248 47.96 161.816 48.392 160.984 48.392ZM158.216 35H165.448V35.848H158.216V35ZM169.96 38.872V41.08H173.624V41.896H169.96V44.664C171.592 44.504 173 44.28 174.184 43.976V44.792C173.064 45.08 171.656 45.304 169.96 45.496V48.456H169.096V45.592C168.696 45.624 168.296 45.672 167.896 45.704L167.768 44.84L169.096 44.744V35.352C171.016 35.064 172.6 34.648 173.832 34.072L174.28 34.792C173.032 35.336 171.592 35.736 169.96 36.024V38.04H173.624V38.872H169.96ZM174.584 40.92H181.112V41.704C180.648 43.24 179.896 44.568 178.872 45.656C179.8 46.488 180.968 47.208 182.344 47.816L181.88 48.552C180.44 47.88 179.24 47.096 178.296 46.216C177.176 47.208 175.784 48.008 174.12 48.584L173.64 47.864C175.272 47.288 176.616 46.536 177.672 45.608C176.616 44.472 175.912 43.192 175.528 41.752H174.584V40.92ZM176.344 41.752C176.696 43 177.32 44.104 178.248 45.064C179.16 44.104 179.832 43 180.264 41.752H176.344ZM175.896 34.632H180.136V38.12C180.136 38.584 180.344 38.824 180.792 38.824H182.168V39.624H180.616C179.72 39.624 179.272 39.16 179.272 38.264V35.432H176.744V36.584C176.744 38.088 176.088 39.272 174.776 40.104L174.184 39.432C175.32 38.792 175.896 37.864 175.896 36.68V34.632ZM193.432 37.352C193.336 37.688 193.256 38.008 193.176 38.312C193.608 40.296 194.168 42.024 194.872 43.464C195.592 41.72 195.976 39.688 196.024 37.352H193.432ZM194.472 44.328C193.768 42.984 193.208 41.416 192.76 39.656C192.44 40.52 192.088 41.272 191.704 41.944L191.16 41.272C192.136 39.448 192.792 37 193.144 33.912L194.008 34.072C193.896 34.936 193.768 35.736 193.624 36.504H197.976V37.352H196.824C196.76 40.104 196.264 42.424 195.336 44.344C196.2 45.864 197.24 47.032 198.424 47.848L197.928 48.552C196.744 47.72 195.752 46.584 194.92 45.144C194.136 46.488 193.128 47.624 191.88 48.52L191.416 47.8C192.696 46.888 193.72 45.736 194.472 44.328ZM186.872 41.4L187.704 41.496C187.576 41.848 187.448 42.184 187.32 42.504H190.744V43.208C190.36 44.328 189.704 45.304 188.808 46.104C189.64 46.472 190.456 46.872 191.224 47.288L190.76 47.976C189.992 47.528 189.112 47.08 188.152 46.648C187.08 47.432 185.736 48.056 184.136 48.52L183.72 47.8C185.128 47.4 186.328 46.888 187.304 46.28C186.568 45.96 185.784 45.64 184.968 45.336C185.416 44.6 185.8 43.912 186.12 43.256H184.072V42.504H186.456C186.616 42.12 186.744 41.752 186.872 41.4ZM188.008 45.768C188.904 45.048 189.544 44.216 189.944 43.256H186.984C186.696 43.864 186.36 44.456 186.008 45C186.696 45.24 187.368 45.496 188.008 45.768ZM185.16 34.328C185.56 34.952 185.912 35.624 186.232 36.36L185.576 36.648C185.24 35.864 184.872 35.16 184.456 34.552L185.16 34.328ZM190.248 34.232L190.888 34.536C190.568 35.256 190.152 35.96 189.656 36.664L189.016 36.328C189.528 35.624 189.944 34.92 190.248 34.232ZM184.12 37.112H187.288V33.992H188.104V37.112H191.128V37.896H188.104V38.088C189 38.584 189.928 39.144 190.856 39.784L190.392 40.472C189.496 39.736 188.728 39.16 188.104 38.744V41.048H187.288V37.896H187.24C186.728 39.176 185.752 40.296 184.28 41.256L183.832 40.536C185.192 39.768 186.104 38.888 186.584 37.896H184.12V37.112Z" fill="#1B2A52"/>
<path d="M69.1666 33.6198C69.1666 33.0292 68.854 32.4827 68.3449 32.1833L55.8449 24.8305C55.3234 24.5237 54.6765 24.5238 54.1549 24.8305L41.6549 32.1833C41.1458 32.4827 40.8333 33.0292 40.8333 33.6198V48.3801C40.8333 48.9707 41.1458 49.5172 41.6549 49.8166L54.1549 57.1697C54.6765 57.4766 55.3234 57.4766 55.845 57.1697L68.345 49.8166C68.854 49.5172 69.1666 48.9707 69.1666 48.3801V33.6198Z" fill="#F99C34" stroke="#F99C34" stroke-width="2.5" stroke-linejoin="round"/>
<rect x="46.6667" y="38.5" width="3.33333" height="10.8333" rx="1.66667" fill="white"/>
<rect x="53.3333" y="35.1665" width="3.33333" height="14.1667" rx="1.66667" fill="white"/>
<rect x="60" y="31.8335" width="3.33333" height="17.5" rx="1.66667" fill="white"/>
<path d="M55 39.3335V46.0002" stroke="url(#paint2_linear_406_1071)" stroke-width="2.5" stroke-linecap="round" stroke-linejoin="round"/>
<path d="M61.6667 36V46" stroke="url(#paint3_linear_406_1071)" stroke-width="2.5" stroke-linecap="round" stroke-linejoin="round"/>
<path d="M48.3333 42.6665V45.9998" stroke="url(#paint4_linear_406_1071)" stroke-width="2.5" stroke-linecap="round" stroke-linejoin="round"/>
<path d="M114.161 113.304H119.793V159H112.305V122.328C109.553 124.824 106.097 126.68 101.873 127.896V120.472C103.921 119.96 106.097 119.064 108.401 117.784C110.705 116.376 112.625 114.904 114.161 113.304ZM144.763 112.408C150.075 112.408 154.235 114.584 157.243 119.064C160.059 123.288 161.467 128.984 161.467 136.152C161.467 143.32 160.059 149.016 157.243 153.24C154.235 157.656 150.075 159.896 144.763 159.896C139.387 159.896 135.227 157.656 132.283 153.24C129.467 149.016 128.059 143.32 128.059 136.152C128.059 128.984 129.467 123.288 132.283 119.064C135.227 114.584 139.387 112.408 144.763 112.408ZM144.763 118.744C141.115 118.744 138.555 120.728 137.083 124.824C136.059 127.576 135.547 131.352 135.547 136.152C135.547 140.888 136.059 144.664 137.083 147.48C138.555 151.512 141.115 153.56 144.763 153.56C148.347 153.56 150.907 151.512 152.443 147.48C153.467 144.664 153.979 140.888 153.979 136.152C153.979 131.352 153.467 127.576 152.443 124.824C150.907 120.728 148.347 118.744 144.763 118.744ZM183.138 112.408C188.45 112.408 192.61 114.584 195.618 119.064C198.434 123.288 199.842 128.984 199.842 136.152C199.842 143.32 198.434 149.016 195.618 153.24C192.61 157.656 188.45 159.896 183.138 159.896C177.762 159.896 173.602 157.656 170.658 153.24C167.842 149.016 166.434 143.32 166.434 136.152C166.434 128.984 167.842 123.288 170.658 119.064C173.602 114.584 177.762 112.408 183.138 112.408ZM183.138 118.744C179.49 118.744 176.93 120.728 175.458 124.824C174.434 127.576 173.922 131.352 173.922 136.152C173.922 140.888 174.434 144.664 175.458 147.48C176.93 151.512 179.49 153.56 183.138 153.56C186.722 153.56 189.282 151.512 190.818 147.48C191.842 144.664 192.354 140.888 192.354 136.152C192.354 131.352 191.842 127.576 190.818 124.824C189.282 120.728 186.722 118.744 183.138 118.744ZM221.513 112.408C226.825 112.408 230.985 114.584 233.993 119.064C236.809 123.288 238.217 128.984 238.217 136.152C238.217 143.32 236.809 149.016 233.993 153.24C230.985 157.656 226.825 159.896 221.513 159.896C216.137 159.896 211.977 157.656 209.033 153.24C206.217 149.016 204.809 143.32 204.809 136.152C204.809 128.984 206.217 123.288 209.033 119.064C211.977 114.584 216.137 112.408 221.513 112.408ZM221.513 118.744C217.865 118.744 215.305 120.728 213.833 124.824C212.809 127.576 212.297 131.352 212.297 136.152C212.297 140.888 212.809 144.664 213.833 147.48C215.305 151.512 217.865 153.56 221.513 153.56C225.097 153.56 227.657 151.512 229.193 147.48C230.217 144.664 230.729 140.888 230.729 136.152C230.729 131.352 230.217 127.576 229.193 124.824C227.657 120.728 225.097 118.744 221.513 118.744Z" fill="url(#paint5_linear_406_1071)"/>
<path d="M264.568 141.664H265.432V151.552H264.568V141.664ZM264.6 136.976H265.4C266.744 139.232 269.08 141.216 272.376 142.928L271.864 143.696C268.792 142.112 266.504 140.144 265 137.808C263.176 140.4 260.888 142.384 258.136 143.792L257.624 143.008C260.632 141.472 262.968 139.456 264.6 136.976Z" fill="#1B2A52"/>
<line x1="4.37114e-08" y1="79.5" x2="372" y2="79.5" stroke="#BFD8FC"/>
<defs>
<linearGradient id="paint0_linear_406_1071" x1="186" y1="0" x2="186" y2="180" gradientUnits="userSpaceOnUse">
<stop stop-color="white"/>
<stop offset="1" stop-color="white" stop-opacity="0"/>
</linearGradient>
<linearGradient id="paint1_linear_406_1071" x1="186" y1="0" x2="186" y2="180" gradientUnits="userSpaceOnUse">
<stop stop-color="white"/>
<stop offset="1" stop-color="white" stop-opacity="0"/>
</linearGradient>
<linearGradient id="paint2_linear_406_1071" x1="55.5" y1="39.3335" x2="55.5" y2="46.0002" gradientUnits="userSpaceOnUse">
<stop stop-color="#F99C34" stop-opacity="0.75"/>
<stop offset="0.479167" stop-color="#F99C34"/>
<stop offset="1" stop-color="#F99C34" stop-opacity="0.75"/>
</linearGradient>
<linearGradient id="paint3_linear_406_1071" x1="62.1667" y1="36" x2="62.1667" y2="46" gradientUnits="userSpaceOnUse">
<stop stop-color="#F99C34" stop-opacity="0.75"/>
<stop offset="0.479167" stop-color="#F99C34"/>
<stop offset="1" stop-color="#F99C34" stop-opacity="0.75"/>
</linearGradient>
<linearGradient id="paint4_linear_406_1071" x1="48.8333" y1="42.6665" x2="48.8333" y2="45.9998" gradientUnits="userSpaceOnUse">
<stop stop-color="#F99C34" stop-opacity="0.75"/>
<stop offset="0.479167" stop-color="#F99C34"/>
<stop offset="1" stop-color="#F99C34" stop-opacity="0.75"/>
</linearGradient>
<linearGradient id="paint5_linear_406_1071" x1="170" y1="91" x2="170" y2="181" gradientUnits="userSpaceOnUse">
<stop stop-color="#F99C34"/>
<stop offset="1" stop-color="#FFC88B"/>
</linearGradient>
</defs>
</svg>
