<svg width="372" height="181" viewBox="0 0 372 181" fill="none" xmlns="http://www.w3.org/2000/svg">
<rect width="372" height="180" rx="10" fill="url(#paint0_linear_406_1047)"/>
<mask id="mask0_406_1047" style="mask-type:alpha" maskUnits="userSpaceOnUse" x="0" y="0" width="372" height="180">
<rect width="372" height="180" rx="10" fill="url(#paint1_linear_406_1047)"/>
</mask>
<g mask="url(#mask0_406_1047)">
<g opacity="0.2">
<path d="M273.25 154.4C289.294 154.4 302.3 141.394 302.3 125.35C302.3 109.306 289.294 96.2998 273.25 96.2998C257.206 96.2998 244.2 109.306 244.2 125.35C244.2 141.394 257.206 154.4 273.25 154.4Z" stroke="#FBA74A" stroke-width="12.45" stroke-linecap="round" stroke-linejoin="round"/>
<path d="M352.1 117.05L377 141.95L352.1 166.85" stroke="#FBA74A" stroke-width="12.45" stroke-linecap="round" stroke-linejoin="round"/>
</g>
</g>
<path d="M88.04 38.856H93.432C93.784 38.376 94.056 37.88 94.248 37.368C92.808 37.432 91.304 37.48 89.736 37.528L89.592 36.76C90.728 36.408 92.056 35.48 93.56 33.944L94.408 34.232C93.368 35.32 92.344 36.152 91.32 36.76C93.784 36.68 96.072 36.568 98.184 36.408C97.64 35.928 97.08 35.432 96.472 34.936L97.144 34.504C98.728 35.768 99.944 36.872 100.792 37.832L100.072 38.312C99.72 37.912 99.336 37.512 98.92 37.096C97.72 37.176 96.456 37.256 95.144 37.32C94.952 37.864 94.696 38.376 94.392 38.856H101.832V39.656H97.624C98.616 40.76 100.184 41.624 102.312 42.248L101.928 43.048C99.464 42.184 97.72 41.064 96.712 39.656H93.8C92.552 41.096 90.648 42.264 88.12 43.144L87.736 42.376C89.944 41.704 91.624 40.792 92.744 39.656H88.04V38.856ZM95.144 40.424L95.848 40.84C94.76 42.168 93.112 43.224 90.872 44.008L90.472 43.304C92.6 42.584 94.152 41.624 95.144 40.424ZM99.288 42.872L100.04 43.224C98.584 45.848 95.416 47.688 90.52 48.728L90.008 48.04C94.872 46.984 97.96 45.272 99.288 42.872ZM97.192 41.736L97.88 42.184C96.04 44.296 93.672 45.624 90.776 46.152L90.28 45.464C93.24 44.984 95.544 43.736 97.192 41.736ZM106.712 33.896L107.576 33.96L107.336 36.248H117.24V37.096H107.256L106.952 39.944H116.024C116.024 44.2 115.72 46.664 115.144 47.336C114.536 47.976 113.272 48.312 111.352 48.312C110.856 48.312 110.344 48.296 109.816 48.28L109.56 47.48C110.328 47.512 110.856 47.544 111.16 47.544C113.048 47.544 114.184 47.224 114.568 46.584C114.952 45.912 115.16 43.96 115.16 40.76H105.976L106.712 33.896ZM103.816 43.592H112.888V44.44H103.816V43.592ZM125.272 34.776H133.848V35.608H129.976V41.912H134.344V42.728H129.976V48.568H129.112V42.728H124.808V41.912H129.112V35.608H125.272V34.776ZM132.552 36.552L133.336 36.76C132.984 38.312 132.552 39.672 132.024 40.856L131.288 40.6C131.768 39.544 132.2 38.184 132.552 36.552ZM126.296 36.648C126.808 37.832 127.272 39.176 127.672 40.712L126.92 40.888C126.568 39.512 126.104 38.184 125.56 36.904L126.296 36.648ZM121.464 34.136C122.568 34.984 123.496 35.832 124.264 36.68L123.672 37.288C122.968 36.488 122.024 35.624 120.84 34.728L121.464 34.136ZM119.704 38.952H123V46.296C123.576 45.816 124.184 45.24 124.84 44.6L125.064 45.528C124.168 46.424 123.192 47.24 122.168 47.944L121.832 47.16C122.04 46.968 122.152 46.776 122.152 46.568V39.8H119.704V38.952ZM140.936 34.328L141.672 34.776C140.936 36.12 140.184 37.224 139.416 38.088C138.568 39.048 137.496 39.944 136.216 40.808L135.736 40.04C136.888 39.368 137.896 38.536 138.76 37.528C139.56 36.616 140.296 35.544 140.936 34.328ZM141.496 41.272H138.088V40.424H147.528C147.48 42.376 147.384 43.96 147.24 45.176C147.08 46.36 146.824 47.208 146.472 47.688C146.12 48.152 145.544 48.408 144.744 48.44H141.912L141.688 47.592C142.616 47.608 143.48 47.624 144.312 47.624C145.208 47.624 145.8 47.224 146.088 46.456C146.376 45.64 146.568 43.912 146.664 41.272H142.344C141.96 43.08 141.432 44.504 140.728 45.56C139.912 46.68 138.696 47.704 137.064 48.6L136.52 47.896C138.024 47.08 139.144 46.184 139.912 45.208C140.616 44.216 141.144 42.904 141.496 41.272ZM145.16 34.104C146.12 36.632 147.8 38.616 150.2 40.056L149.624 40.744C147.128 39.16 145.384 37.08 144.408 34.52L145.16 34.104ZM151.848 38.968H156.472C156.68 38.216 156.872 37.464 157.064 36.712H152.952V35.896H157.256C157.4 35.224 157.544 34.552 157.672 33.88L158.536 33.96C158.408 34.648 158.28 35.288 158.152 35.896H165.192V36.712H157.96C157.768 37.512 157.592 38.264 157.4 38.968H166.152V39.8H157.16C156.904 40.664 156.632 41.448 156.36 42.168H164.168V42.936C163.368 44.216 162.12 45.48 160.392 46.728C161.432 47.128 162.424 47.56 163.368 48.024L162.888 48.76C160.44 47.544 157.928 46.584 155.368 45.88L155.832 45.192C157.096 45.544 158.312 45.944 159.48 46.376C161.048 45.304 162.28 44.168 163.16 42.984H155.144C155.528 41.96 155.896 40.904 156.232 39.8H151.848V38.968ZM177.592 42.216C177.176 42.36 176.776 42.488 176.36 42.584C176.632 43.384 176.776 44.232 176.808 45.16C176.808 46.408 176.632 47.272 176.312 47.752C175.96 48.264 175.128 48.536 173.784 48.536H173.224L172.936 47.784H173.672C174.648 47.768 175.272 47.624 175.528 47.336C175.816 46.968 175.976 46.248 175.976 45.16C175.96 44.776 175.928 44.424 175.88 44.088C174.104 45.544 171.688 46.728 168.648 47.656L168.216 46.904C171.48 45.944 173.96 44.728 175.688 43.24C175.56 42.728 175.368 42.264 175.144 41.832C173.608 43.064 171.496 44.072 168.84 44.84L168.424 44.088C171.176 43.336 173.288 42.376 174.76 41.192C174.52 40.84 174.264 40.504 173.976 40.2C173.8 40.296 173.624 40.376 173.464 40.456C172.312 40.984 170.872 41.496 169.144 41.976L168.68 41.256C170.264 40.888 171.656 40.44 172.856 39.928C173.592 39.608 174.264 39.256 174.872 38.888H170.184V38.072H179.832V38.888H176.12C175.608 39.24 175.112 39.56 174.632 39.848C175.24 40.472 175.72 41.16 176.072 41.896C177.64 41.48 179.112 40.808 180.488 39.896L181.08 40.472C180.216 41.064 179.288 41.56 178.296 41.96C179.064 44.072 180.312 45.752 182.04 47L181.432 47.72C179.624 46.28 178.344 44.456 177.592 42.216ZM175.064 33.864C175.272 34.344 175.464 34.872 175.64 35.48H181.672V38.104H180.808V36.296H169.176V38.104H168.312V35.48H174.792C174.6 34.936 174.392 34.456 174.184 34.008L175.064 33.864Z" fill="#1B2A52"/>
<g filter="url(#filter0_b_406_1047)">
<path fill-rule="evenodd" clip-rule="evenodd" d="M75 33.2846C75 34.8741 73.7115 36.1626 72.1221 36.1626L38.8779 36.1625C37.2885 36.1625 36 34.8741 36 33.2846C36 31.6952 37.2885 30.4067 38.8779 30.4067L72.1221 30.4067C73.7115 30.4067 75 31.6952 75 33.2846Z" fill="white" fill-opacity="0.2"/>
<path d="M74.5 33.2846C74.5 34.5979 73.4354 35.6626 72.1221 35.6626L38.8779 35.6625C37.5646 35.6625 36.5 34.5979 36.5 33.2846C36.5 31.9714 37.5646 30.9067 38.8779 30.9067L72.1221 30.9067C73.4354 30.9067 74.5 31.9714 74.5 33.2846Z" stroke="white"/>
</g>
<g filter="url(#filter1_b_406_1047)">
<path fill-rule="evenodd" clip-rule="evenodd" d="M48.0543 49.75C48.0543 50.5784 47.3827 51.25 46.5543 51.25L42.4634 51.25C41.635 51.25 40.9634 50.5784 40.9634 49.75C40.9634 48.9216 41.635 48.25 42.4634 48.25L46.5543 48.25C47.3827 48.25 48.0543 48.9216 48.0543 49.75Z" fill="white"/>
</g>
<ellipse cx="50.8908" cy="49.75" rx="1.41818" ry="1.5" fill="white"/>
<ellipse cx="55.1452" cy="49.75" rx="1.41818" ry="1.5" fill="white"/>
<path d="M50.8333 36.6667C54.055 36.6667 56.6667 34.055 56.6667 30.8333C56.6667 27.6117 54.055 25 50.8333 25C47.6117 25 45 27.6117 45 30.8333C45 34.055 47.6117 36.6667 50.8333 36.6667Z" fill="#F99C34" stroke="#F99C34" stroke-width="2.5" stroke-linecap="round" stroke-linejoin="round"/>
<path d="M66.6667 29.1665L71.6667 34.1665L66.6667 39.1665" stroke="url(#paint2_linear_406_1047)" stroke-width="3.5" stroke-linecap="round" stroke-linejoin="round"/>
<path d="M38.3333 54.0002V55.0002H63.3333V54.0002C63.3333 50.2665 63.3333 48.3997 62.6067 46.9736C61.9675 45.7192 60.9476 44.6992 59.6932 44.0601C58.2671 43.3335 56.4003 43.3335 52.6666 43.3335H48.9999C45.2663 43.3335 43.3994 43.3335 41.9733 44.0601C40.7189 44.6992 39.699 45.7192 39.0599 46.9736C38.3333 48.3997 38.3333 50.2665 38.3333 54.0002Z" fill="#F99C34" stroke="#F99C34" stroke-width="2.5" stroke-linecap="round" stroke-linejoin="round"/>
<path d="M133.848 113.304H139.48V159H131.992V122.328C129.24 124.824 125.784 126.68 121.56 127.896V120.472C123.608 119.96 125.784 119.064 128.088 117.784C130.392 116.376 132.312 114.904 133.848 113.304ZM164.45 112.408C169.762 112.408 173.922 114.584 176.93 119.064C179.746 123.288 181.154 128.984 181.154 136.152C181.154 143.32 179.746 149.016 176.93 153.24C173.922 157.656 169.762 159.896 164.45 159.896C159.074 159.896 154.914 157.656 151.97 153.24C149.154 149.016 147.746 143.32 147.746 136.152C147.746 128.984 149.154 123.288 151.97 119.064C154.914 114.584 159.074 112.408 164.45 112.408ZM164.45 118.744C160.802 118.744 158.242 120.728 156.77 124.824C155.746 127.576 155.234 131.352 155.234 136.152C155.234 140.888 155.746 144.664 156.77 147.48C158.242 151.512 160.802 153.56 164.45 153.56C168.034 153.56 170.594 151.512 172.13 147.48C173.154 144.664 173.666 140.888 173.666 136.152C173.666 131.352 173.154 127.576 172.13 124.824C170.594 120.728 168.034 118.744 164.45 118.744ZM202.825 112.408C208.137 112.408 212.297 114.584 215.305 119.064C218.121 123.288 219.529 128.984 219.529 136.152C219.529 143.32 218.121 149.016 215.305 153.24C212.297 157.656 208.137 159.896 202.825 159.896C197.449 159.896 193.289 157.656 190.345 153.24C187.529 149.016 186.121 143.32 186.121 136.152C186.121 128.984 187.529 123.288 190.345 119.064C193.289 114.584 197.449 112.408 202.825 112.408ZM202.825 118.744C199.177 118.744 196.617 120.728 195.145 124.824C194.121 127.576 193.609 131.352 193.609 136.152C193.609 140.888 194.121 144.664 195.145 147.48C196.617 151.512 199.177 153.56 202.825 153.56C206.409 153.56 208.969 151.512 210.505 147.48C211.529 144.664 212.041 140.888 212.041 136.152C212.041 131.352 211.529 127.576 210.505 124.824C208.969 120.728 206.409 118.744 202.825 118.744Z" fill="url(#paint3_linear_406_1047)"/>
<path d="M245.568 141.664H246.432V151.552H245.568V141.664ZM245.6 136.976H246.4C247.744 139.232 250.08 141.216 253.376 142.928L252.864 143.696C249.792 142.112 247.504 140.144 246 137.808C244.176 140.4 241.888 142.384 239.136 143.792L238.624 143.008C241.632 141.472 243.968 139.456 245.6 136.976Z" fill="#1B2A52"/>
<line x1="4.37114e-08" y1="79.5" x2="372" y2="79.5" stroke="#BFD8FC"/>
<defs>
<filter id="filter0_b_406_1047" x="32" y="26.4067" width="47" height="13.7559" filterUnits="userSpaceOnUse" color-interpolation-filters="sRGB">
<feFlood flood-opacity="0" result="BackgroundImageFix"/>
<feGaussianBlur in="BackgroundImageFix" stdDeviation="2"/>
<feComposite in2="SourceAlpha" operator="in" result="effect1_backgroundBlur_406_1047"/>
<feBlend mode="normal" in="SourceGraphic" in2="effect1_backgroundBlur_406_1047" result="shape"/>
</filter>
<filter id="filter1_b_406_1047" x="36.9634" y="44.25" width="15.0908" height="11" filterUnits="userSpaceOnUse" color-interpolation-filters="sRGB">
<feFlood flood-opacity="0" result="BackgroundImageFix"/>
<feGaussianBlur in="BackgroundImageFix" stdDeviation="2"/>
<feComposite in2="SourceAlpha" operator="in" result="effect1_backgroundBlur_406_1047"/>
<feBlend mode="normal" in="SourceGraphic" in2="effect1_backgroundBlur_406_1047" result="shape"/>
</filter>
<linearGradient id="paint0_linear_406_1047" x1="186" y1="0" x2="186" y2="180" gradientUnits="userSpaceOnUse">
<stop stop-color="white"/>
<stop offset="1" stop-color="white" stop-opacity="0"/>
</linearGradient>
<linearGradient id="paint1_linear_406_1047" x1="186" y1="0" x2="186" y2="180" gradientUnits="userSpaceOnUse">
<stop stop-color="white"/>
<stop offset="1" stop-color="white" stop-opacity="0"/>
</linearGradient>
<linearGradient id="paint2_linear_406_1047" x1="69.1667" y1="29.1665" x2="69.1667" y2="39.1665" gradientUnits="userSpaceOnUse">
<stop stop-color="#F99C34" stop-opacity="0.8"/>
<stop offset="0.479167" stop-color="#F99C34"/>
<stop offset="0.979167" stop-color="#F99C34" stop-opacity="0.8"/>
</linearGradient>
<linearGradient id="paint3_linear_406_1047" x1="170.5" y1="91" x2="170.5" y2="181" gradientUnits="userSpaceOnUse">
<stop stop-color="#F99C34"/>
<stop offset="1" stop-color="#FFC88B"/>
</linearGradient>
</defs>
</svg>
