<svg width="372" height="181" viewBox="0 0 372 181" fill="none" xmlns="http://www.w3.org/2000/svg">
<rect width="372" height="180" rx="10" fill="url(#paint0_linear_406_1096)"/>
<mask id="mask0_406_1096" style="mask-type:alpha" maskUnits="userSpaceOnUse" x="0" y="0" width="372" height="180">
<rect width="372" height="180" rx="10" fill="url(#paint1_linear_406_1096)"/>
</mask>
<g mask="url(#mask0_406_1096)">
<path fill-rule="evenodd" clip-rule="evenodd" d="M279.609 154.551C258.672 154.551 241.698 171.525 241.698 192.462V257.134H317.52V192.462C317.52 171.525 300.546 154.551 279.609 154.551ZM228.318 192.462C228.318 164.135 251.282 141.171 279.609 141.171C307.936 141.171 330.9 164.135 330.9 192.462V263.824C330.9 267.519 327.905 270.514 324.21 270.514H235.008C231.313 270.514 228.318 267.519 228.318 263.824V192.462Z" fill="#FDBC73"/>
<path fill-rule="evenodd" clip-rule="evenodd" d="M279.609 96.5698C283.304 96.5698 286.299 99.5651 286.299 103.26V116.64C286.299 120.335 283.304 123.33 279.609 123.33C275.914 123.33 272.919 120.335 272.919 116.64V103.26C272.919 99.5651 275.914 96.5698 279.609 96.5698Z" fill="#FDBC73"/>
<path fill-rule="evenodd" clip-rule="evenodd" d="M336.948 117.44C339.778 119.815 340.148 124.035 337.773 126.865L329.172 137.115C326.797 139.946 322.577 140.315 319.746 137.94C316.916 135.565 316.547 131.345 318.922 128.515L327.523 118.264C329.898 115.434 334.118 115.065 336.948 117.44Z" fill="#FDBC73"/>
<path fill-rule="evenodd" clip-rule="evenodd" d="M367.455 170.281C368.096 173.92 365.667 177.39 362.028 178.032L348.851 180.355C345.212 180.997 341.742 178.568 341.1 174.929C340.459 171.29 342.888 167.82 346.527 167.178L359.704 164.855C363.343 164.213 366.813 166.643 367.455 170.281Z" fill="#FDBC73"/>
<path fill-rule="evenodd" clip-rule="evenodd" d="M191.762 170.282C192.404 166.643 195.874 164.214 199.513 164.855L212.69 167.178C216.328 167.82 218.758 171.29 218.117 174.929C217.475 178.567 214.005 180.997 210.366 180.356L197.189 178.032C193.551 177.391 191.121 173.921 191.762 170.282Z" fill="#FDBC73"/>
<path fill-rule="evenodd" clip-rule="evenodd" d="M222.272 117.438C225.102 115.063 229.322 115.433 231.697 118.263L240.298 128.513C242.673 131.344 242.304 135.563 239.473 137.938C236.643 140.313 232.423 139.944 230.048 137.114L221.447 126.864C219.072 124.033 219.441 119.813 222.272 117.438Z" fill="#FDBC73"/>
</g>
<path d="M93.288 45.656V46.488C91.72 47.096 89.928 47.592 87.928 47.976L87.8 47.128C89.88 46.76 91.72 46.264 93.288 45.656ZM91 34.072L91.816 34.408C90.888 36.568 89.928 38.264 88.968 39.512C89.864 39.416 90.776 39.304 91.688 39.144C92.072 38.472 92.472 37.768 92.888 37L93.672 37.304C91.944 40.392 90.536 42.536 89.432 43.752C90.808 43.48 92.184 43.096 93.528 42.6V43.4C91.736 44.04 90.008 44.488 88.328 44.728L88.104 43.912C88.264 43.848 88.392 43.768 88.504 43.656C89.256 42.92 90.152 41.688 91.208 39.96C90.152 40.12 89.096 40.264 88.072 40.392L87.864 39.576C87.992 39.512 88.12 39.4 88.232 39.24C89.288 37.768 90.216 36.056 91 34.072ZM97.592 35.992H94.152V35.144H101.816V35.992H98.456V47.016H102.232V47.864H93.704V47.016H97.592V35.992ZM110.872 39.416H106.712V42.6H110.872V39.416ZM111.72 42.6H115.816V39.416H111.72V42.6ZM108.088 36.344C107.032 37.528 105.784 38.584 104.344 39.48L103.768 38.776C105.912 37.464 107.624 35.832 108.888 33.864L109.768 34.072C109.448 34.584 109.112 35.08 108.744 35.544H114.696V36.216C114.024 37.16 113.336 37.944 112.648 38.584H116.68V43.432H106.712V46.696C106.712 47.192 106.984 47.448 107.528 47.464H115.496C116.072 47.448 116.472 47.256 116.696 46.888C116.888 46.568 117.032 45.848 117.128 44.728L117.976 44.984C117.88 46.04 117.72 46.808 117.512 47.272C117.192 47.944 116.6 48.296 115.72 48.312H107.24C106.296 48.312 105.832 47.864 105.832 46.968V38.584H111.48C112.216 37.944 112.92 37.192 113.576 36.344H108.088ZM126.344 34.712H134.216V35.544H130.888C130.808 36.248 130.696 36.936 130.536 37.576H133.608V44.968H132.792V38.376H127.848V44.968H127.032V37.576H129.688C129.848 36.936 129.96 36.248 130.04 35.544H126.344V34.712ZM131.32 45.048C132.536 46.008 133.544 46.984 134.376 47.944L133.768 48.536C133.016 47.608 132.008 46.632 130.744 45.592L131.32 45.048ZM129.864 39.384H130.696V42.28C130.664 43.976 130.296 45.32 129.592 46.328C128.888 47.272 127.736 48.008 126.168 48.536L125.672 47.8C127.208 47.304 128.296 46.616 128.952 45.752C129.528 44.856 129.832 43.704 129.864 42.28V39.384ZM121.32 36.68C121.784 37.128 122.2 37.544 122.584 37.928C123.24 37.224 123.832 36.424 124.36 35.528H120.2V34.712H125.32V35.4C124.648 36.584 123.912 37.624 123.112 38.504C123.464 38.888 123.752 39.256 124.008 39.576H125.784V40.12C125.512 41.368 125.192 42.344 124.84 43.048L124.12 42.76C124.44 42.104 124.712 41.32 124.968 40.392H122.952V47.368C122.952 48.104 122.584 48.488 121.864 48.488H120.344L120.152 47.688C120.648 47.72 121.112 47.752 121.56 47.752C121.928 47.752 122.12 47.544 122.12 47.16V40.392H119.752V39.576H123.048C122.392 38.792 121.592 37.96 120.664 37.08L121.32 36.68ZM136.184 34.68H138.2V33.896H138.952V34.68H140.904V33.896H141.656V34.68H143.64V35.352H141.656V36.184H140.904V35.352H138.952V36.184H138.2V35.352H136.184V34.68ZM137.592 37.96H140.904V39.976H141.352C141.752 39.944 142.008 39.768 142.12 39.448C142.216 39.128 142.28 38.408 142.312 37.256H137.72C137.368 37.992 136.888 38.584 136.296 39.064L135.832 38.504C136.616 37.864 137.144 37 137.432 35.912L138.168 36.04L137.976 36.632H143.112C143.112 38.456 142.984 39.56 142.76 39.96C142.68 40.072 142.6 40.168 142.52 40.248L143.08 40.168C143.272 40.488 143.448 40.84 143.608 41.256H149.88V41.912H136.136V41.256H142.776C142.616 40.936 142.472 40.648 142.312 40.392C142.088 40.488 141.832 40.552 141.544 40.568H140.856L140.712 40.072H137.592V37.96ZM140.232 39.56V38.488H138.28V39.56H140.232ZM145.432 35.72C145.368 35.864 145.288 36.008 145.224 36.136C145.448 36.936 145.912 37.624 146.632 38.216C147.304 37.544 147.752 36.712 147.976 35.72H145.432ZM144.776 36.888C144.44 37.352 144.072 37.768 143.688 38.12L143.208 37.512C144.2 36.584 144.872 35.352 145.224 33.816L146.024 33.944C145.928 34.296 145.832 34.648 145.72 34.984H149.672V35.72H148.744C148.488 36.936 147.992 37.912 147.256 38.68C148.008 39.16 148.936 39.576 150.04 39.912L149.64 40.6C148.44 40.216 147.464 39.736 146.696 39.192C145.896 39.8 144.936 40.248 143.816 40.536L143.48 39.816C144.52 39.576 145.384 39.208 146.072 38.696C145.464 38.152 145.032 37.544 144.776 36.888ZM138.088 42.824H148.056V43.4H138.088V42.824ZM138.088 44.264H148.056V44.84H138.088V44.264ZM148.52 45.736V48.68H147.672V48.168H138.52V48.68H137.672V45.736H148.52ZM138.52 47.544H147.672V46.36H138.52V47.544ZM159.448 33.992C159.448 35.352 159.4 36.52 159.336 37.496C160.232 41.944 162.584 45.336 166.36 47.672L165.784 48.408C162.344 46.184 160.088 43.176 159.032 39.4C158.152 43.032 155.864 46.04 152.152 48.424L151.624 47.656C156.088 44.872 158.392 41.192 158.552 36.584C158.552 35.464 158.568 34.6 158.568 33.992H159.448ZM177.432 37.352C177.336 37.688 177.256 38.008 177.176 38.312C177.608 40.296 178.168 42.024 178.872 43.464C179.592 41.72 179.976 39.688 180.024 37.352H177.432ZM178.472 44.328C177.768 42.984 177.208 41.416 176.76 39.656C176.44 40.52 176.088 41.272 175.704 41.944L175.16 41.272C176.136 39.448 176.792 37 177.144 33.912L178.008 34.072C177.896 34.936 177.768 35.736 177.624 36.504H181.976V37.352H180.824C180.76 40.104 180.264 42.424 179.336 44.344C180.2 45.864 181.24 47.032 182.424 47.848L181.928 48.552C180.744 47.72 179.752 46.584 178.92 45.144C178.136 46.488 177.128 47.624 175.88 48.52L175.416 47.8C176.696 46.888 177.72 45.736 178.472 44.328ZM170.872 41.4L171.704 41.496C171.576 41.848 171.448 42.184 171.32 42.504H174.744V43.208C174.36 44.328 173.704 45.304 172.808 46.104C173.64 46.472 174.456 46.872 175.224 47.288L174.76 47.976C173.992 47.528 173.112 47.08 172.152 46.648C171.08 47.432 169.736 48.056 168.136 48.52L167.72 47.8C169.128 47.4 170.328 46.888 171.304 46.28C170.568 45.96 169.784 45.64 168.968 45.336C169.416 44.6 169.8 43.912 170.12 43.256H168.072V42.504H170.456C170.616 42.12 170.744 41.752 170.872 41.4ZM172.008 45.768C172.904 45.048 173.544 44.216 173.944 43.256H170.984C170.696 43.864 170.36 44.456 170.008 45C170.696 45.24 171.368 45.496 172.008 45.768ZM169.16 34.328C169.56 34.952 169.912 35.624 170.232 36.36L169.576 36.648C169.24 35.864 168.872 35.16 168.456 34.552L169.16 34.328ZM174.248 34.232L174.888 34.536C174.568 35.256 174.152 35.96 173.656 36.664L173.016 36.328C173.528 35.624 173.944 34.92 174.248 34.232ZM168.12 37.112H171.288V33.992H172.104V37.112H175.128V37.896H172.104V38.088C173 38.584 173.928 39.144 174.856 39.784L174.392 40.472C173.496 39.736 172.728 39.16 172.104 38.744V41.048H171.288V37.896H171.24C170.728 39.176 169.752 40.296 168.28 41.256L167.832 40.536C169.192 39.768 170.104 38.888 170.584 37.896H168.12V37.112Z" fill="#1B2A52"/>
<path fill-rule="evenodd" clip-rule="evenodd" d="M54.1312 22.5454C54.9139 22.5454 55.5484 23.1799 55.5484 23.9627V26.7971C55.5484 27.5799 54.9139 28.2144 54.1312 28.2144C53.3484 28.2144 52.7139 27.5799 52.7139 26.7971V23.9627C52.7139 23.1799 53.3484 22.5454 54.1312 22.5454ZM44.683 39.8594C44.683 34.6413 48.9132 30.4111 54.1312 30.4111C59.3493 30.4111 63.5795 34.6413 63.5795 39.8594V54.5593H72.0829C72.8656 54.5593 73.5001 55.1938 73.5001 55.9766C73.5001 56.7593 72.8656 57.3938 72.0829 57.3938H37.1243C36.3416 57.3938 35.707 56.7593 35.707 55.9766C35.707 55.1938 36.3416 54.5593 37.1243 54.5593H44.683V39.8594ZM66.4525 28.963C66.9556 28.3634 66.8774 27.4694 66.2778 26.9663C65.6782 26.4632 64.7843 26.5414 64.2812 27.141L62.4592 29.3124C61.956 29.912 62.0343 30.8059 62.6338 31.309C63.2334 31.8121 64.1274 31.7339 64.6305 31.1343L66.4525 28.963ZM71.7404 38.1606C71.8764 38.9314 71.3617 39.6665 70.5908 39.8024L67.7993 40.2947C67.0285 40.4306 66.2934 39.9159 66.1575 39.1451C66.0216 38.3743 66.5363 37.6392 67.3071 37.5033L70.0986 37.011C70.8694 36.8751 71.6045 37.3898 71.7404 38.1606ZM38.1637 37.0115C37.3928 36.8756 36.6578 37.3903 36.5219 38.1611C36.386 38.932 36.9007 39.667 37.6715 39.8029L40.4629 40.2951C41.2338 40.431 41.9688 39.9163 42.1047 39.1455C42.2406 38.3746 41.7259 37.6396 40.9551 37.5037L38.1637 37.0115ZM41.9846 26.9663C42.5842 26.4632 43.4781 26.5414 43.9813 27.141L45.8033 29.3124C46.3064 29.912 46.2282 30.8059 45.6286 31.3091C45.029 31.8122 44.1351 31.734 43.6319 31.1344L41.8099 28.963C41.3068 28.3634 41.385 27.4695 41.9846 26.9663Z" fill="#FCB05C"/>
<g filter="url(#filter0_b_406_1096)">
<path fill-rule="evenodd" clip-rule="evenodd" d="M74 55.8779C74 57.4673 72.7115 58.7558 71.1221 58.7558L37.8779 58.7558C36.2885 58.7558 35 57.4673 35 55.8779C35 54.2885 36.2885 53 37.8779 53L71.1221 53C72.7115 53 74 54.2885 74 55.8779Z" fill="white" fill-opacity="0.2"/>
<path d="M73.5 55.8779C73.5 57.1912 72.4354 58.2558 71.1221 58.2558L37.8779 58.2558C36.5646 58.2558 35.5 57.1912 35.5 55.8779C35.5 54.5646 36.5646 53.5 37.8779 53.5L71.1221 53.5C72.4354 53.5 73.5 54.5646 73.5 55.8779Z" stroke="white"/>
</g>
<path d="M175.865 113.304H182.713V143.256H189.497V149.208H182.713V159H175.609V149.208H153.529V142.104L175.865 113.304ZM175.417 122.776L159.609 143.256H175.609V122.776H175.417Z" fill="url(#paint2_linear_406_1096)"/>
<path d="M212.568 141.664H213.432V151.552H212.568V141.664ZM212.6 136.976H213.4C214.744 139.232 217.08 141.216 220.376 142.928L219.864 143.696C216.792 142.112 214.504 140.144 213 137.808C211.176 140.4 208.888 142.384 206.136 143.792L205.624 143.008C208.632 141.472 210.968 139.456 212.6 136.976Z" fill="#1B2A52"/>
<line x1="4.37114e-08" y1="79.5" x2="372" y2="79.5" stroke="#BFD8FC"/>
<defs>
<filter id="filter0_b_406_1096" x="31" y="49" width="47" height="13.7559" filterUnits="userSpaceOnUse" color-interpolation-filters="sRGB">
<feFlood flood-opacity="0" result="BackgroundImageFix"/>
<feGaussianBlur in="BackgroundImageFix" stdDeviation="2"/>
<feComposite in2="SourceAlpha" operator="in" result="effect1_backgroundBlur_406_1096"/>
<feBlend mode="normal" in="SourceGraphic" in2="effect1_backgroundBlur_406_1096" result="shape"/>
</filter>
<linearGradient id="paint0_linear_406_1096" x1="186" y1="0" x2="186" y2="180" gradientUnits="userSpaceOnUse">
<stop stop-color="white"/>
<stop offset="1" stop-color="white" stop-opacity="0"/>
</linearGradient>
<linearGradient id="paint1_linear_406_1096" x1="186" y1="0" x2="186" y2="180" gradientUnits="userSpaceOnUse">
<stop stop-color="white"/>
<stop offset="1" stop-color="white" stop-opacity="0"/>
</linearGradient>
<linearGradient id="paint2_linear_406_1096" x1="171.5" y1="91" x2="171.5" y2="181" gradientUnits="userSpaceOnUse">
<stop stop-color="#F99C34"/>
<stop offset="1" stop-color="#FFC88B"/>
</linearGradient>
</defs>
</svg>
