<svg width="372" height="181" viewBox="0 0 372 181" fill="none" xmlns="http://www.w3.org/2000/svg">
<rect width="372" height="180" rx="10" fill="url(#paint0_linear_406_1126)"/>
<mask id="mask0_406_1126" style="mask-type:alpha" maskUnits="userSpaceOnUse" x="0" y="0" width="372" height="180">
<rect width="372" height="180" rx="10" fill="url(#paint1_linear_406_1126)"/>
</mask>
<g mask="url(#mask0_406_1126)">
<path opacity="0.2" fill-rule="evenodd" clip-rule="evenodd" d="M230.125 161.1C230.125 132.45 253.35 109.225 282 109.225C310.65 109.225 333.875 132.45 333.875 161.1V237.875H230.125V161.1ZM346.325 161.1V237.875H365C368.438 237.875 371.225 240.662 371.225 244.1C371.225 247.538 368.438 250.325 365 250.325H308.896C307.837 264.253 296.2 275.225 282 275.225C267.8 275.225 256.163 264.253 255.104 250.325H199C195.562 250.325 192.775 247.538 192.775 244.1C192.775 240.662 195.562 237.875 199 237.875H217.675V161.1C217.675 125.574 246.474 96.7749 282 96.7749C317.526 96.7749 346.325 125.574 346.325 161.1ZM282 262.775C274.683 262.775 268.629 257.364 267.622 250.325H296.378C295.371 257.364 289.317 262.775 282 262.775Z" fill="#FBA94E"/>
</g>
<path d="M90.664 35.576H91.464V47H90.472V36.792C89.736 37.592 88.824 38.152 87.736 38.472V37.48C88.264 37.32 88.792 37.08 89.304 36.76C89.816 36.424 90.28 36.024 90.664 35.576ZM95.2158 35.432H98.5918V33.992H99.4398V35.432H103.184V33.976H104.032V35.432H107.536V36.232H104.032V37.912H108.4V38.696H101.76V40.152H106.48V45.528H96.2078V40.152H100.928V38.696H94.3038V37.912H98.5918V36.232H95.2158V35.432ZM103.184 37.912V36.232H99.4398V37.912H103.184ZM105.648 44.76V43.176H101.76V44.76H105.648ZM100.928 44.76V43.176H97.0398V44.76H100.928ZM97.0398 42.456H100.928V40.904H97.0398V42.456ZM101.76 40.904V42.456H105.648V40.904H101.76ZM103.168 45.912C105.088 46.424 106.832 47.064 108.416 47.832L107.936 48.536C106.24 47.704 104.512 47.032 102.736 46.552L103.168 45.912ZM99.2638 45.8L99.7758 46.408C98.4318 47.256 96.7358 47.96 94.6718 48.52L94.2878 47.752C96.2878 47.272 97.9518 46.616 99.2638 45.8ZM117.216 39.416H113.056V42.6H117.216V39.416ZM118.064 42.6H122.16V39.416H118.064V42.6ZM114.432 36.344C113.376 37.528 112.128 38.584 110.688 39.48L110.112 38.776C112.256 37.464 113.968 35.832 115.232 33.864L116.112 34.072C115.792 34.584 115.456 35.08 115.088 35.544H121.04V36.216C120.368 37.16 119.68 37.944 118.992 38.584H123.024V43.432H113.056V46.696C113.056 47.192 113.328 47.448 113.872 47.464H121.84C122.416 47.448 122.816 47.256 123.04 46.888C123.232 46.568 123.376 45.848 123.472 44.728L124.32 44.984C124.224 46.04 124.064 46.808 123.856 47.272C123.536 47.944 122.944 48.296 122.064 48.312H113.584C112.64 48.312 112.176 47.864 112.176 46.968V38.584H117.824C118.56 37.944 119.264 37.192 119.92 36.344H114.432ZM132.688 34.712H140.56V35.544H137.232C137.152 36.248 137.04 36.936 136.88 37.576H139.952V44.968H139.136V38.376H134.192V44.968H133.376V37.576H136.032C136.192 36.936 136.304 36.248 136.384 35.544H132.688V34.712ZM137.664 45.048C138.88 46.008 139.888 46.984 140.72 47.944L140.112 48.536C139.36 47.608 138.352 46.632 137.088 45.592L137.664 45.048ZM136.208 39.384H137.04V42.28C137.008 43.976 136.64 45.32 135.936 46.328C135.232 47.272 134.08 48.008 132.512 48.536L132.016 47.8C133.552 47.304 134.64 46.616 135.296 45.752C135.872 44.856 136.176 43.704 136.208 42.28V39.384ZM127.664 36.68C128.128 37.128 128.544 37.544 128.928 37.928C129.584 37.224 130.176 36.424 130.704 35.528H126.544V34.712H131.664V35.4C130.992 36.584 130.256 37.624 129.456 38.504C129.808 38.888 130.096 39.256 130.352 39.576H132.128V40.12C131.856 41.368 131.536 42.344 131.184 43.048L130.464 42.76C130.784 42.104 131.056 41.32 131.312 40.392H129.296V47.368C129.296 48.104 128.928 48.488 128.208 48.488H126.688L126.496 47.688C126.992 47.72 127.456 47.752 127.904 47.752C128.272 47.752 128.464 47.544 128.464 47.16V40.392H126.096V39.576H129.392C128.736 38.792 127.936 37.96 127.008 37.08L127.664 36.68ZM142.528 34.68H144.544V33.896H145.296V34.68H147.248V33.896H148V34.68H149.984V35.352H148V36.184H147.248V35.352H145.296V36.184H144.544V35.352H142.528V34.68ZM143.936 37.96H147.248V39.976H147.696C148.096 39.944 148.352 39.768 148.464 39.448C148.56 39.128 148.624 38.408 148.656 37.256H144.064C143.712 37.992 143.232 38.584 142.64 39.064L142.176 38.504C142.96 37.864 143.488 37 143.776 35.912L144.512 36.04L144.32 36.632H149.456C149.456 38.456 149.328 39.56 149.104 39.96C149.024 40.072 148.944 40.168 148.864 40.248L149.424 40.168C149.616 40.488 149.792 40.84 149.952 41.256H156.224V41.912H142.48V41.256H149.12C148.96 40.936 148.816 40.648 148.656 40.392C148.432 40.488 148.176 40.552 147.888 40.568H147.2L147.056 40.072H143.936V37.96ZM146.576 39.56V38.488H144.624V39.56H146.576ZM151.776 35.72C151.712 35.864 151.632 36.008 151.568 36.136C151.792 36.936 152.256 37.624 152.976 38.216C153.648 37.544 154.096 36.712 154.32 35.72H151.776ZM151.12 36.888C150.784 37.352 150.416 37.768 150.032 38.12L149.552 37.512C150.544 36.584 151.216 35.352 151.568 33.816L152.368 33.944C152.272 34.296 152.176 34.648 152.064 34.984H156.016V35.72H155.088C154.832 36.936 154.336 37.912 153.6 38.68C154.352 39.16 155.28 39.576 156.384 39.912L155.984 40.6C154.784 40.216 153.808 39.736 153.04 39.192C152.24 39.8 151.28 40.248 150.16 40.536L149.824 39.816C150.864 39.576 151.728 39.208 152.416 38.696C151.808 38.152 151.376 37.544 151.12 36.888ZM144.432 42.824H154.4V43.4H144.432V42.824ZM144.432 44.264H154.4V44.84H144.432V44.264ZM154.864 45.736V48.68H154.016V48.168H144.864V48.68H144.016V45.736H154.864ZM144.864 47.544H154.016V46.36H144.864V47.544ZM165.792 33.992C165.792 35.352 165.744 36.52 165.68 37.496C166.576 41.944 168.928 45.336 172.704 47.672L172.128 48.408C168.688 46.184 166.432 43.176 165.376 39.4C164.496 43.032 162.208 46.04 158.496 48.424L157.968 47.656C162.432 44.872 164.736 41.192 164.896 36.584C164.896 35.464 164.912 34.6 164.912 33.992H165.792ZM183.776 37.352C183.68 37.688 183.6 38.008 183.52 38.312C183.952 40.296 184.512 42.024 185.216 43.464C185.936 41.72 186.32 39.688 186.368 37.352H183.776ZM184.816 44.328C184.112 42.984 183.552 41.416 183.104 39.656C182.784 40.52 182.432 41.272 182.048 41.944L181.504 41.272C182.48 39.448 183.136 37 183.488 33.912L184.352 34.072C184.24 34.936 184.112 35.736 183.968 36.504H188.32V37.352H187.168C187.104 40.104 186.608 42.424 185.68 44.344C186.544 45.864 187.584 47.032 188.768 47.848L188.272 48.552C187.088 47.72 186.096 46.584 185.264 45.144C184.48 46.488 183.472 47.624 182.224 48.52L181.76 47.8C183.04 46.888 184.064 45.736 184.816 44.328ZM177.216 41.4L178.048 41.496C177.92 41.848 177.792 42.184 177.664 42.504H181.088V43.208C180.704 44.328 180.048 45.304 179.152 46.104C179.984 46.472 180.8 46.872 181.568 47.288L181.104 47.976C180.336 47.528 179.456 47.08 178.496 46.648C177.424 47.432 176.08 48.056 174.48 48.52L174.064 47.8C175.472 47.4 176.672 46.888 177.648 46.28C176.912 45.96 176.128 45.64 175.312 45.336C175.76 44.6 176.144 43.912 176.464 43.256H174.416V42.504H176.8C176.96 42.12 177.088 41.752 177.216 41.4ZM178.352 45.768C179.248 45.048 179.888 44.216 180.288 43.256H177.328C177.04 43.864 176.704 44.456 176.352 45C177.04 45.24 177.712 45.496 178.352 45.768ZM175.504 34.328C175.904 34.952 176.256 35.624 176.576 36.36L175.92 36.648C175.584 35.864 175.216 35.16 174.8 34.552L175.504 34.328ZM180.592 34.232L181.232 34.536C180.912 35.256 180.496 35.96 180 36.664L179.36 36.328C179.872 35.624 180.288 34.92 180.592 34.232ZM174.464 37.112H177.632V33.992H178.448V37.112H181.472V37.896H178.448V38.088C179.344 38.584 180.272 39.144 181.2 39.784L180.736 40.472C179.84 39.736 179.072 39.16 178.448 38.744V41.048H177.632V37.896H177.584C177.072 39.176 176.096 40.296 174.624 41.256L174.176 40.536C175.536 39.768 176.448 38.888 176.928 37.896H174.464V37.112Z" fill="#1B2A52"/>
<path fill-rule="evenodd" clip-rule="evenodd" d="M54.5 24C47.3563 24 41.5652 29.7911 41.5652 36.9348V49.8696H39.2826C38.022 49.8696 37 50.8915 37 52.1522C37 53.4128 38.022 54.4348 39.2826 54.4348H49.7931C50.4352 56.422 52.2993 57.8587 54.5 57.8587C56.7007 57.8587 58.5648 56.422 59.2069 54.4348H69.7174C70.9781 54.4348 72 53.4128 72 52.1522C72 50.8915 70.9781 49.8696 69.7174 49.8696H67.4348V36.9348C67.4348 29.7911 61.6437 24 54.5 24Z" fill="#FCB05C"/>
<g filter="url(#filter0_b_406_1126)">
<rect x="36" y="50" width="37" height="5" rx="2.5" fill="white" fill-opacity="0.2"/>
<rect x="36.5" y="50.5" width="36" height="4" rx="2" stroke="white"/>
</g>
<path d="M153.036 113.304H158.668V159H151.18V122.328C148.428 124.824 144.972 126.68 140.748 127.896V120.472C142.796 119.96 144.972 119.064 147.276 117.784C149.58 116.376 151.5 114.904 153.036 113.304ZM183.638 112.408C188.95 112.408 193.11 114.584 196.118 119.064C198.934 123.288 200.342 128.984 200.342 136.152C200.342 143.32 198.934 149.016 196.118 153.24C193.11 157.656 188.95 159.896 183.638 159.896C178.262 159.896 174.102 157.656 171.158 153.24C168.342 149.016 166.934 143.32 166.934 136.152C166.934 128.984 168.342 123.288 171.158 119.064C174.102 114.584 178.262 112.408 183.638 112.408ZM183.638 118.744C179.99 118.744 177.43 120.728 175.958 124.824C174.934 127.576 174.422 131.352 174.422 136.152C174.422 140.888 174.934 144.664 175.958 147.48C177.43 151.512 179.99 153.56 183.638 153.56C187.222 153.56 189.782 151.512 191.318 147.48C192.342 144.664 192.854 140.888 192.854 136.152C192.854 131.352 192.342 127.576 191.318 124.824C189.782 120.728 187.222 118.744 183.638 118.744Z" fill="url(#paint2_linear_406_1126)"/>
<path d="M225.568 141.664H226.432V151.552H225.568V141.664ZM225.6 136.976H226.4C227.744 139.232 230.08 141.216 233.376 142.928L232.864 143.696C229.792 142.112 227.504 140.144 226 137.808C224.176 140.4 221.888 142.384 219.136 143.792L218.624 143.008C221.632 141.472 223.968 139.456 225.6 136.976Z" fill="#1B2A52"/>
<line x1="4.37114e-08" y1="79.5" x2="372" y2="79.5" stroke="#BFD8FC"/>
<defs>
<filter id="filter0_b_406_1126" x="32" y="46" width="45" height="13" filterUnits="userSpaceOnUse" color-interpolation-filters="sRGB">
<feFlood flood-opacity="0" result="BackgroundImageFix"/>
<feGaussianBlur in="BackgroundImageFix" stdDeviation="2"/>
<feComposite in2="SourceAlpha" operator="in" result="effect1_backgroundBlur_406_1126"/>
<feBlend mode="normal" in="SourceGraphic" in2="effect1_backgroundBlur_406_1126" result="shape"/>
</filter>
<linearGradient id="paint0_linear_406_1126" x1="186" y1="0" x2="186" y2="180" gradientUnits="userSpaceOnUse">
<stop stop-color="white"/>
<stop offset="1" stop-color="white" stop-opacity="0"/>
</linearGradient>
<linearGradient id="paint1_linear_406_1126" x1="186" y1="0" x2="186" y2="180" gradientUnits="userSpaceOnUse">
<stop stop-color="white"/>
<stop offset="1" stop-color="white" stop-opacity="0"/>
</linearGradient>
<linearGradient id="paint2_linear_406_1126" x1="170.5" y1="91" x2="170.5" y2="181" gradientUnits="userSpaceOnUse">
<stop stop-color="#F99C34"/>
<stop offset="1" stop-color="#FFC88B"/>
</linearGradient>
</defs>
</svg>
