<svg width="20" height="20" viewBox="0 0 21 20" fill="none" xmlns="http://www.w3.org/2000/svg">
<circle cx="10.5" cy="10" r="10" fill="#DA0000"/>
<path fill-rule="evenodd" clip-rule="evenodd" d="M7.81136 6.52926C7.62575 6.33758 7.32482 6.33758 7.13921 6.52926C6.9536 6.72095 6.9536 7.03173 7.13921 7.22341L9.81721 9.98906L7.02926 12.6887C6.83758 12.8743 6.83758 13.1752 7.02926 13.3608C7.22095 13.5464 7.53173 13.5464 7.72341 13.3608L10.489 10.6828L13.1886 13.4708C13.3742 13.6625 13.6751 13.6625 13.8608 13.4708C14.0464 13.2791 14.0464 12.9683 13.8608 12.7766L11.1828 10.011L13.9708 7.31141C14.1625 7.1258 14.1625 6.82487 13.9708 6.63926C13.7791 6.45365 13.4683 6.45365 13.2766 6.63926L10.511 9.31725L7.81136 6.52926Z" fill="white"/>
<path d="M7.13921 6.52926L6.78001 6.18145L6.78001 6.18145L7.13921 6.52926ZM7.81136 6.52926L8.17056 6.18145V6.18145L7.81136 6.52926ZM7.13921 7.22341L6.78001 7.57123H6.78001L7.13921 7.22341ZM9.81721 9.98906L10.165 10.3483L10.5242 10.0004L10.1764 9.64124L9.81721 9.98906ZM7.02926 12.6887L6.68145 12.3295H6.68145L7.02926 12.6887ZM7.02926 13.3608L7.37708 13.0016L7.02926 13.3608ZM7.72341 13.3608L7.3756 13.0016H7.3756L7.72341 13.3608ZM10.489 10.6828L10.8482 10.335L10.5004 9.97583L10.1412 10.3236L10.489 10.6828ZM13.1886 13.4708L12.8294 13.8186V13.8186L13.1886 13.4708ZM13.8608 13.4708L13.5016 13.123L13.5016 13.123L13.8608 13.4708ZM13.8608 12.7766L13.5016 13.1245V13.1245L13.8608 12.7766ZM11.1828 10.011L10.835 9.65184L10.4758 9.99966L10.8236 10.3589L11.1828 10.011ZM13.9708 7.31141L14.3186 7.67061L14.3186 7.67061L13.9708 7.31141ZM13.9708 6.63926L14.3186 6.28006L14.3186 6.28006L13.9708 6.63926ZM13.2766 6.63926L12.9288 6.28006V6.28006L13.2766 6.63926ZM10.511 9.31725L10.1518 9.66507L10.4996 10.0243L10.8588 9.67645L10.511 9.31725ZM7.49841 6.87708C7.49742 6.87809 7.49445 6.88059 7.48958 6.88263C7.48502 6.88454 7.48013 6.8855 7.47528 6.8855C7.47044 6.8855 7.46555 6.88454 7.46099 6.88263C7.45612 6.88059 7.45315 6.87809 7.45216 6.87708L8.17056 6.18145C7.78847 5.78685 7.1621 5.78685 6.78001 6.18145L7.49841 6.87708ZM7.49841 6.8756C7.49932 6.87654 7.49998 6.87772 7.50021 6.87829C7.5003 6.87853 7.5 6.8778 7.5 6.87634C7.5 6.87487 7.5003 6.87415 7.50021 6.87438C7.49998 6.87495 7.49932 6.87613 7.49841 6.87708L6.78001 6.18145C6.40666 6.56701 6.40666 7.18567 6.78001 7.57123L7.49841 6.8756ZM10.1764 9.64124L7.49841 6.8756L6.78001 7.57123L9.45801 10.3369L10.1764 9.64124ZM7.37708 13.0478L10.165 10.3483L9.46939 9.62986L6.68145 12.3295L7.37708 13.0478ZM7.37708 13.0016C7.37809 13.0026 7.38059 13.0056 7.38263 13.0104C7.38454 13.015 7.3855 13.0199 7.3855 13.0247C7.3855 13.0296 7.38454 13.0345 7.38263 13.039C7.38059 13.0439 7.37809 13.0469 7.37708 13.0478L6.68145 12.3295C6.28685 12.7115 6.28685 13.3379 6.68145 13.72L7.37708 13.0016ZM7.3756 13.0016C7.37654 13.0007 7.37772 13 7.37829 12.9998C7.37853 12.9997 7.3778 13 7.37634 13C7.37487 13 7.37415 12.9997 7.37438 12.9998C7.37495 13 7.37613 13.0007 7.37708 13.0016L6.68145 13.72C7.06701 14.0933 7.68567 14.0933 8.07123 13.72L7.3756 13.0016ZM10.1412 10.3236L7.3756 13.0016L8.07123 13.72L10.8368 11.042L10.1412 10.3236ZM13.5478 13.123L10.8482 10.335L10.1298 11.0307L12.8294 13.8186L13.5478 13.123ZM13.5016 13.123C13.5025 13.122 13.5055 13.1195 13.5104 13.1174C13.5149 13.1155 13.5198 13.1146 13.5247 13.1146C13.5295 13.1146 13.5344 13.1155 13.539 13.1174C13.5438 13.1195 13.5468 13.122 13.5478 13.123L12.8294 13.8186C13.2115 14.2132 13.8379 14.2132 14.22 13.8186L13.5016 13.123ZM13.5016 13.1245C13.5006 13.1235 13.5 13.1223 13.4998 13.1218C13.4997 13.1215 13.5 13.1222 13.5 13.1237C13.5 13.1252 13.4997 13.1259 13.4998 13.1257C13.5 13.1251 13.5006 13.1239 13.5016 13.123L14.22 13.8186C14.5933 13.433 14.5933 12.8144 14.22 12.4288L13.5016 13.1245ZM10.8236 10.3589L13.5016 13.1245L14.22 12.4288L11.542 9.66323L10.8236 10.3589ZM13.623 6.95221L10.835 9.65184L11.5306 10.3702L14.3186 7.67061L13.623 6.95221ZM13.623 6.99846C13.622 6.99747 13.6195 6.9945 13.6174 6.98962C13.6155 6.98507 13.6146 6.98018 13.6146 6.97533C13.6146 6.97049 13.6155 6.9656 13.6174 6.96104C13.6195 6.95617 13.622 6.9532 13.623 6.95221L14.3186 7.67061C14.7132 7.28852 14.7132 6.66215 14.3186 6.28006L13.623 6.99846ZM13.6245 6.99846C13.6235 6.99937 13.6223 7.00003 13.6218 7.00026C13.6215 7.00035 13.6222 7.00005 13.6237 7.00005C13.6252 7.00005 13.6259 7.00035 13.6257 7.00026C13.6251 7.00003 13.6239 6.99937 13.623 6.99846L14.3186 6.28006C13.933 5.90671 13.3144 5.90671 12.9288 6.28006L13.6245 6.99846ZM10.8588 9.67645L13.6245 6.99846L12.9288 6.28006L10.1632 8.95805L10.8588 9.67645ZM7.45216 6.87708L10.1518 9.66507L10.8702 8.96943L8.17056 6.18145L7.45216 6.87708Z" fill="white"/>
</svg>
