<svg width="85" height="54" viewBox="0 0 85 54" fill="none" xmlns="http://www.w3.org/2000/svg">
<g opacity="0.9">
<path fill-rule="evenodd" clip-rule="evenodd" d="M18.3457 80.4433H20.8131V37.8853H18.3457V80.4433Z" fill="#DAE8F7"/>
<path fill-rule="evenodd" clip-rule="evenodd" d="M84.2625 79.9243H86.7298V37.3661H84.2625V79.9243Z" fill="#D5E5F6"/>
<path fill-rule="evenodd" clip-rule="evenodd" d="M49.0527 73.2638H51.5203V30.7057H49.0527V73.2638Z" fill="#D5E5F6"/>
<path fill-rule="evenodd" clip-rule="evenodd" d="M12.245 34.7713C19.3859 32.8352 35.4592 31.4843 54.1241 31.4843C72.7889 31.4843 88.8624 32.8352 96.0032 34.7713H99.9485V36.8472H99.9264C99.9409 36.9051 99.9485 36.9625 99.9485 37.0202C99.9485 40.0756 79.4154 42.5563 54.1241 42.5563C28.8329 42.5563 8.2998 40.0756 8.2998 37.0202C8.2998 36.9625 8.30716 36.9051 8.32188 36.8472H8.2998V34.7713H12.245Z" fill="#D0E2F4"/>
<path fill-rule="evenodd" clip-rule="evenodd" d="M54.1242 29.4083C79.4154 29.4083 99.9485 31.889 99.9485 34.9443C99.9485 37.9997 79.4154 40.4803 54.1242 40.4803C28.8329 40.4803 8.2998 37.9997 8.2998 34.9443C8.2998 31.889 28.8329 29.4083 54.1242 29.4083Z" fill="#EAF5FC"/>
<path fill-rule="evenodd" clip-rule="evenodd" d="M19.2292 71.6414H20.5864V59.0762H19.2292V71.6414Z" fill="#D1D5E7"/>
<path fill-rule="evenodd" clip-rule="evenodd" d="M19.9079 79.6962L14.3662 83.2965C14.2116 83.3969 14.1719 83.5976 14.278 83.7443C14.341 83.8319 14.4458 83.8846 14.5579 83.8846H25.2577C25.4452 83.8846 25.597 83.7404 25.597 83.5625C25.597 83.4559 25.5417 83.3566 25.4494 83.2965L19.9079 79.6962Z" fill="#DBDEED"/>
<path fill-rule="evenodd" clip-rule="evenodd" d="M19.9079 67.4531C19.1584 67.4531 18.5505 68.0302 18.5505 68.7417V80.6626H21.2651V68.7417C21.2651 68.0302 20.6574 67.4531 19.9079 67.4531Z" fill="#DBDEED"/>
<path fill-rule="evenodd" clip-rule="evenodd" d="M3.73218 31.6906L19.0772 31.3808C21.5608 31.3376 24.2454 35.8573 24.0412 37.8781L26.115 47.3884L39.4589 48.5792C43.1476 50.1971 41.7947 56.433 40.8093 59.8634C40.3058 61.3953 38.4701 62.781 34.5586 63.9389L10.5972 54.2434L3.73218 31.6906Z" fill="#DBDEED"/>
<path fill-rule="evenodd" clip-rule="evenodd" d="M11.214 51.2704C12.0342 53.0258 31.0757 51.2748 35.3909 53.2582C37.8193 54.5658 37.8193 62.9426 35.3909 63.5706C33.4347 64.5491 13.2707 64.854 9.77854 63.2483C7.71282 60.1844 2.28105 47.9024 0.0168337 33.8219C-0.301394 31.8431 3.98489 30.9012 5.0359 32.5005C8.21282 41.0248 8.26884 43.9266 11.214 51.2704Z" fill="#F0F2F9"/>
<path fill-rule="evenodd" clip-rule="evenodd" d="M53.0164 31.5627H58.748V24.3939H53.0164V31.5627Z" fill="#DAE8F7"/>
<path fill-rule="evenodd" clip-rule="evenodd" d="M48.1821 32.4563H63.5823V31.4208H48.1821V32.4563Z" fill="#DAE8F7"/>
<mask id="mask0_32_301" style="mask-type:luminance" maskUnits="userSpaceOnUse" x="36" y="0" width="40" height="28">
<path d="M37.5593 0.162048C36.9598 0.162048 36.4731 0.641507 36.4731 1.23214V26.2113C36.4731 26.8016 36.9598 27.2812 37.5593 27.2812H74.2051C74.8044 27.2812 75.2912 26.8016 75.2912 26.2113V1.23214C75.2912 0.641507 74.8044 0.162048 74.2051 0.162048H37.5593Z" fill="white"/>
</mask>
<g mask="url(#mask0_32_301)">
<path d="M37.5593 0.162048C36.9598 0.162048 36.4731 0.641507 36.4731 1.23214V26.2113C36.4731 26.8016 36.9598 27.2812 37.5593 27.2812H74.2051C74.8044 27.2812 75.2912 26.8016 75.2912 26.2113V1.23214C75.2912 0.641507 74.8044 0.162048 74.2051 0.162048H37.5593Z" fill="url(#paint0_linear_32_301)"/>
<path d="M37.5593 0.162048C36.9598 0.162048 36.4731 0.641507 36.4731 1.23214V26.2113C36.4731 26.8016 36.9598 27.2812 37.5593 27.2812H74.2051C74.8044 27.2812 75.2912 26.8016 75.2912 26.2113V1.23214C75.2912 0.641507 74.8044 0.162048 74.2051 0.162048H37.5593Z" fill="#EDF6FD"/>
<path fill-rule="evenodd" clip-rule="evenodd" d="M34.0784 21.3763H79.4319V-1.64709H34.0784V21.3763Z" fill="#8A9CAC"/>
<path fill-rule="evenodd" clip-rule="evenodd" d="M38.3203 19.9268H73.1991V2.15863H38.3203V19.9268Z" fill="white"/>
</g>
<path d="M44.8017 33.1301L41.2378 36.5414H71.063L67.5179 33.1103L44.8017 33.1301Z" fill="#D8D8D8"/>
<path fill-rule="evenodd" clip-rule="evenodd" d="M44.8017 33.1301L41.2378 36.5414H71.063L67.5179 33.1103L44.8017 33.1301Z" fill="#DAE8F7"/>
<path fill-rule="evenodd" clip-rule="evenodd" d="M32.3843 34.9718H31.0356V35.6499H31.0581C31.2586 36.0314 32.7975 36.3283 34.6634 36.3283C36.5298 36.3283 38.0686 36.0314 38.2691 35.6499H38.2913V34.9718H36.943C36.3199 34.8656 35.5266 34.8022 34.6634 34.8022C33.8004 34.8022 33.0072 34.8656 32.3843 34.9718Z" fill="url(#paint1_linear_32_301)"/>
<path fill-rule="evenodd" clip-rule="evenodd" d="M31.0356 35.0565C31.0356 35.4775 32.6612 35.8197 34.6634 35.8197C36.6659 35.8197 38.2913 35.4775 38.2913 35.0565C38.2913 34.6353 36.6659 34.2934 34.6634 34.2934C32.6612 34.2934 31.0356 34.6353 31.0356 35.0565Z" fill="url(#paint2_linear_32_301)"/>
<path fill-rule="evenodd" clip-rule="evenodd" d="M33.6172 22.8505C33.4997 23.0298 33.5527 23.269 33.7353 23.3841L34.3301 23.7591C34.5126 23.8741 34.7562 23.8219 34.8736 23.6425L40.853 14.5045L39.6216 13.6742L33.6172 22.8505Z" fill="url(#paint3_linear_32_301)"/>
<path fill-rule="evenodd" clip-rule="evenodd" d="M33.9757 22.6866C33.7586 22.6866 33.5825 22.8595 33.5825 23.0723V34.9292C33.5825 35.1423 35.0758 35.1423 35.0758 34.9292V23.0723C35.0758 22.8595 34.8997 22.6866 34.6827 22.6866H33.9757Z" fill="#CDE7F2"/>
<path fill-rule="evenodd" clip-rule="evenodd" d="M39.4463 14.8064L39.6092 15.5868C38.6464 17.3247 41.628 21.136 41.628 21.136C41.7581 21.1678 41.8949 21.1887 42.0371 21.1996L45.9638 19.5305L47.5874 17.2295C47.6125 17.1156 47.6307 17.0006 47.6419 16.885L47.3444 16.2899C46.5739 15.4619 44.6479 13.8893 44.1137 13.5948C43.9285 13.4927 42.8516 13.245 42.8516 13.245C42.8516 13.245 42.8463 13.2377 42.8357 13.2245C41.6255 13.4288 40.368 13.9903 39.4463 14.8064Z" fill="url(#paint4_linear_32_301)"/>
<path fill-rule="evenodd" clip-rule="evenodd" d="M40.6404 22.1998C40.6404 22.1998 42.1128 16.5962 47.6497 16.7869C53.874 17.0012 41.8703 24.5836 40.6404 22.1998Z" fill="white"/>
<path fill-rule="evenodd" clip-rule="evenodd" d="M43.0266 18.3912C43.2604 18.8737 43.8636 19.1138 44.4378 18.9315C45.0589 18.7345 45.4122 18.118 45.2271 17.5557C45.1813 17.4168 45.107 17.2941 45.0117 17.1913C44.2269 17.4835 43.5711 17.9095 43.0266 18.3912Z" fill="#F99C34"/>
<path fill-rule="evenodd" clip-rule="evenodd" d="M40.445 12.3205C39.5179 12.7484 39.2788 14.0035 39.2788 14.0035L39.6092 15.5868C39.6092 15.5868 40.1457 13.2817 43.4449 13.4183L43.4301 13.3858C43.1315 13.3092 42.8517 13.245 42.8517 13.245C42.8517 13.245 42.0512 12.1861 41.047 12.1861C40.8526 12.1861 40.6504 12.2258 40.445 12.3205Z" fill="url(#paint5_linear_32_301)"/>
<path fill-rule="evenodd" clip-rule="evenodd" d="M28.893 28.4669C26.6421 29.1829 24.4461 29.1416 22.2898 28.5564L23.4793 33.7871C24.9609 34.2843 26.4438 34.3016 27.9279 33.7818L28.8935 28.4669H28.893Z" fill="url(#paint6_linear_32_301)"/>
<path fill-rule="evenodd" clip-rule="evenodd" d="M25.6376 28.1087C27.4386 28.1087 28.9009 28.3129 28.9009 28.5646C28.9009 28.8163 27.4386 29.0205 25.6376 29.0205C23.8364 29.0205 22.374 28.8163 22.374 28.5646C22.374 28.3129 23.8364 28.1087 25.6376 28.1087Z" fill="#F99C34"/>
<path fill-rule="evenodd" clip-rule="evenodd" d="M21.2715 23.4574C22.4329 26.2986 24.9003 30.1747 26.0842 28.5944C25.5832 25.2935 21.9242 22.3866 19.4342 21.7739C19.3613 21.8439 20.7072 22.077 21.2715 23.4574Z" fill="#0033FF"/>
<path fill-rule="evenodd" clip-rule="evenodd" d="M19.6609 21.8936C19.706 21.9134 19.7567 21.936 19.8114 21.9622C22.6069 23.0006 24.4572 25.2718 25.9713 28.6589C25.9738 28.6647 25.9808 28.6677 25.9868 28.6649C25.9928 28.6622 25.9955 28.6555 25.9928 28.6496C24.4499 25.1975 22.5574 22.9035 19.6754 21.8879C19.6743 21.8874 19.6729 21.8874 19.6714 21.8874C19.6671 21.8874 19.6627 21.8897 19.6609 21.8936Z" fill="url(#paint7_linear_32_301)"/>
<path fill-rule="evenodd" clip-rule="evenodd" d="M24.9342 27.1316C25.1796 29.0275 26.0633 29.7397 26.8575 27.6208C27.2276 22.9807 27.0135 17.6627 22.3916 13.298C25.3707 17.5485 25.1963 22.8102 24.9342 27.1316Z" fill="url(#paint8_linear_32_301)"/>
<path fill-rule="evenodd" clip-rule="evenodd" d="M27.7582 22.8923C26.4203 25.4107 24.9368 29.3259 26.3895 28.9197C28.2724 26.4551 28.6845 22.5356 28.106 20.7755C28.0338 20.7823 28.4082 21.6685 27.7582 22.8923Z" fill="#FAA649"/>
</g>
<defs>
<linearGradient id="paint0_linear_32_301" x1="1977.38" y1="2086.53" x2="1977.38" y2="2712.08" gradientUnits="userSpaceOnUse">
<stop stop-color="#EEEEEE"/>
<stop offset="1" stop-color="#D8D8D8"/>
</linearGradient>
<linearGradient id="paint1_linear_32_301" x1="31.0501" y1="111.109" x2="756.624" y2="111.109" gradientUnits="userSpaceOnUse">
<stop stop-color="#9AD0E6"/>
<stop offset="1" stop-color="#D3EAEF"/>
</linearGradient>
<linearGradient id="paint2_linear_32_301" x1="31.0501" y1="110.594" x2="756.624" y2="110.594" gradientUnits="userSpaceOnUse">
<stop stop-color="white"/>
<stop offset="1" stop-color="#C2D9DD"/>
</linearGradient>
<linearGradient id="paint3_linear_32_301" x1="556.969" y1="63.5478" x2="-87.3074" y2="1019.11" gradientUnits="userSpaceOnUse">
<stop stop-color="#E4EDEF"/>
<stop offset="1" stop-color="#C1E2EF"/>
</linearGradient>
<linearGradient id="paint4_linear_32_301" x1="-97.1862" y1="448.704" x2="869.665" y2="448.704" gradientUnits="userSpaceOnUse">
<stop stop-color="#C1E2EF"/>
<stop offset="1" stop-color="#E4EDEF"/>
</linearGradient>
<linearGradient id="paint5_linear_32_301" x1="-163.919" y1="266.094" x2="497.051" y2="266.094" gradientUnits="userSpaceOnUse">
<stop stop-color="#C1E2EF"/>
<stop offset="1" stop-color="#E4EDEF"/>
</linearGradient>
<linearGradient id="paint6_linear_32_301" x1="22.2903" y1="313.413" x2="682.671" y2="313.413" gradientUnits="userSpaceOnUse">
<stop stop-color="#FAD5C6"/>
<stop offset="1" stop-color="#FCE8DF"/>
</linearGradient>
<linearGradient id="paint7_linear_32_301" x1="110.523" y1="413.865" x2="529.452" y2="333.146" gradientUnits="userSpaceOnUse">
<stop stop-color="#E0F1F6"/>
<stop offset="1" stop-color="#2796A0"/>
</linearGradient>
<linearGradient id="paint8_linear_32_301" x1="237.476" y1="831.362" x2="297.984" y2="811.546" gradientUnits="userSpaceOnUse">
<stop stop-color="white"/>
<stop offset="1" stop-color="#5FBBC5"/>
</linearGradient>
</defs>
</svg>
