<svg width="85" height="57" viewBox="0 0 85 57" fill="none" xmlns="http://www.w3.org/2000/svg">
<path fill-rule="evenodd" clip-rule="evenodd" d="M-2.52539 59.4303H87.3667V1.53668H-2.52539V59.4303Z" fill="#EDF6FD"/>
<path fill-rule="evenodd" clip-rule="evenodd" d="M0 11H85V0H0V11Z" fill="url(#paint0_linear_32_431)"/>
<path d="M6.06102 7.03672L6.46647 6.98035L6.82458 6.82585L7.13124 6.58574L7.36792 6.27464L7.52022 5.91134L7.57579 5.50002L7.52022 5.08661L7.36792 4.72332L7.13124 4.41222L6.82458 4.17211L6.46647 4.0176L6.06102 3.96332L5.65351 4.0176L5.2954 4.17211L4.98874 4.41222L4.75206 4.72332L4.59976 5.08661L4.54419 5.50002L4.59976 5.91134L4.75206 6.27464L4.98874 6.58574L5.2954 6.82585L5.65351 6.98035L6.06102 7.03672Z" fill="#F99C34"/>
<path d="M10.6053 7.03672L11.0108 6.98035L11.3689 6.82585L11.6756 6.58574L11.9143 6.27464L12.0645 5.91134L12.1201 5.50002L12.0645 5.08661L11.9143 4.72332L11.6756 4.41222L11.3689 4.17211L11.0108 4.0176L10.6053 3.96332L10.1999 4.0176L9.83973 4.17211L9.53307 4.41222L9.29639 4.72332L9.14409 5.08661L9.09058 5.50002L9.14409 5.91134L9.29639 6.27464L9.53307 6.58574L9.83973 6.82585L10.1999 6.98035L10.6053 7.03672Z" fill="#ECF4FC"/>
<mask id="mask0_32_431" style="mask-type:luminance" maskUnits="userSpaceOnUse" x="8" y="13" width="17" height="17">
<path d="M16.4319 13.3209L17.3004 13.3668L18.1278 13.49L18.9202 13.6883L19.6837 13.9639L20.4205 14.3147L21.1059 14.7239L21.7439 15.1916L22.3387 15.722L22.88 16.3066L23.3574 16.935L23.7732 17.6073L24.1272 18.3277L24.4091 19.0772L24.6129 19.856L24.7384 20.6661L24.7837 21.518L24.7384 22.3594L24.6149 23.1633L24.4153 23.9358L24.1395 24.6791L23.7917 25.3932L23.3842 26.0613L22.9149 26.6856L22.3819 27.2702L21.5957 27.9613L20.7272 28.548L19.7722 29.0324L19.0231 29.3143L18.241 29.5231L17.426 29.6567L16.5698 29.7131L16.4319 29.7151L15.5634 29.6692L14.736 29.546L13.9436 29.3456L13.1801 29.07L12.4433 28.7213L11.7579 28.3121L11.1199 27.8444L10.5272 27.314L9.98383 26.7294L9.50635 26.101L9.09061 25.4287L8.73662 24.7083L8.45466 23.9588L8.25296 23.18L8.12742 22.3678L8.08008 21.518L8.12536 20.6766L8.24884 19.8706L8.44848 19.1002L8.72427 18.3569L9.07209 17.6408L9.47959 16.9726L9.94884 16.3483L10.4819 15.7658L11.2681 15.0747L12.1366 14.488L13.0916 14.0015L13.8428 13.7217L14.6228 13.513L15.4378 13.3793L16.294 13.3209H16.4319Z" fill="white"/>
</mask>
<g mask="url(#mask0_32_431)">
<path fill-rule="evenodd" clip-rule="evenodd" d="M24.7837 21.518L24.7384 20.6682L24.6129 19.856L24.4091 19.0772L24.1272 18.3277L23.7711 17.6073L23.3574 16.935L22.8779 16.3087L22.3366 15.722L21.7418 15.1916L21.1038 14.7239L20.4185 14.3147L19.6817 13.966L18.9202 13.6904L18.1278 13.49L17.2984 13.3668L16.4319 13.3209L15.5654 13.3668L14.7381 13.49L13.9436 13.6904L13.1821 13.966L12.4453 14.3147L11.76 14.7239L11.122 15.1916L10.5272 15.722L9.98589 16.3087L9.50841 16.935L9.09267 17.6073L8.73662 18.3277L8.45466 19.0772L8.25296 19.856L8.12742 20.6682L8.08008 21.518L8.12742 22.3678L8.25296 23.18L8.45466 23.9567L8.73662 24.7062L9.09267 25.4266L9.50841 26.0989L9.98589 26.7273L10.5272 27.312L11.122 27.8423L11.76 28.3121L12.4453 28.7213L13.1821 29.07L13.9436 29.3456L14.7381 29.546L15.5654 29.6692L16.4319 29.7151L17.2984 29.6692L18.1278 29.546L18.9202 29.3456L19.6817 29.07L20.4185 28.7213L21.1038 28.3121L21.7418 27.8423L22.3366 27.312L22.8779 26.7273L23.3574 26.0989L23.7711 25.4266L24.1272 24.7062L24.4091 23.9567L24.6129 23.18L24.7384 22.3678L24.7837 21.518Z" fill="white"/>
</g>
<mask id="mask1_32_431" style="mask-type:luminance" maskUnits="userSpaceOnUse" x="8" y="13" width="17" height="17">
<path d="M16.4319 13.3209L17.3004 13.3668L18.1278 13.49L18.9202 13.6883L19.6837 13.9639L20.4205 14.3147L21.1059 14.7239L21.7439 15.1916L22.3387 15.722L22.88 16.3066L23.3574 16.935L23.7732 17.6073L24.1272 18.3277L24.4091 19.0772L24.6129 19.856L24.7384 20.6661L24.7837 21.518L24.7384 22.3594L24.6149 23.1633L24.4153 23.9358L24.1395 24.6791L23.7917 25.3932L23.3842 26.0613L22.9149 26.6856L22.3819 27.2702L21.5957 27.9613L20.7272 28.548L19.7722 29.0324L19.0231 29.3143L18.241 29.5231L17.426 29.6567L16.5698 29.7131L16.4319 29.7151L15.5634 29.6692L14.736 29.546L13.9436 29.3456L13.1801 29.07L12.4433 28.7213L11.7579 28.3121L11.1199 27.8444L10.5272 27.314L9.98383 26.7294L9.50635 26.101L9.09061 25.4287L8.73662 24.7083L8.45466 23.9588L8.25296 23.18L8.12742 22.3678L8.08008 21.518L8.12536 20.6766L8.24884 19.8706L8.44848 19.1002L8.72427 18.3569L9.07209 17.6408L9.47959 16.9726L9.94884 16.3483L10.4819 15.7658L11.2681 15.0747L12.1366 14.488L13.0916 14.0015L13.8428 13.7217L14.6228 13.513L15.4378 13.3793L16.294 13.3209H16.4319Z" fill="white"/>
</mask>
<g mask="url(#mask1_32_431)">
<path d="M24.7837 21.518L24.7384 20.6682L24.6129 19.856L24.4091 19.0772L24.1272 18.3277L23.7711 17.6073L23.3574 16.935L22.8779 16.3087L22.3366 15.722L21.7418 15.1916L21.1038 14.7239L20.4185 14.3147L19.6817 13.966L18.9202 13.6904L18.1278 13.49L17.2984 13.3668L16.4319 13.3209L15.5654 13.3668L14.7381 13.49L13.9436 13.6904L13.1821 13.966L12.4453 14.3147L11.76 14.7239L11.122 15.1916L10.5272 15.722L9.98589 16.3087L9.50841 16.935L9.09267 17.6073L8.73662 18.3277L8.45466 19.0772L8.25296 19.856L8.12742 20.6682L8.08008 21.518L8.12742 22.3678L8.25296 23.18L8.45466 23.9567L8.73662 24.7062L9.09267 25.4266L9.50841 26.0989L9.98589 26.7273L10.5272 27.312L11.122 27.8423L11.76 28.3121L12.4453 28.7213L13.1821 29.07L13.9436 29.3456L14.7381 29.546L15.5654 29.6692L16.4319 29.7151L17.2984 29.6692L18.1278 29.546L18.9202 29.3456L19.6817 29.07L20.4185 28.7213L21.1038 28.3121L21.7418 27.8423L22.3366 27.312L22.8779 26.7273L23.3574 26.0989L23.7711 25.4266L24.1272 24.7062L24.4091 23.9567L24.6129 23.18L24.7384 22.3678L24.7837 21.518Z" stroke="#E4EBFF" stroke-width="2"/>
</g>
<mask id="mask2_32_431" style="mask-type:luminance" maskUnits="userSpaceOnUse" x="9" y="15" width="15" height="13">
<path d="M16.6913 15.0455L17.568 15.1081L18.3933 15.2772L19.1754 15.5549L19.9143 15.9328L20.5893 16.3943L21.2026 16.9413L21.7419 17.5635L22.1967 18.2483L22.5692 18.9979L22.843 19.7913L23.0097 20.6285L23.0714 21.518L23.0097 22.4074L22.843 23.2426L22.5692 24.036L22.1967 24.7877L21.7419 25.4725L21.2026 26.0926L20.5893 26.6417L19.9143 27.1032L19.1754 27.4811L18.3933 27.7567L17.568 27.9279L16.6913 27.9884H16.1726L15.2959 27.9279L14.4706 27.7567L13.6885 27.4811L12.9496 27.1032L12.2746 26.6417L11.6612 26.0926L11.122 25.4725L10.6672 24.7877L10.2947 24.036L10.0209 23.2426L9.85422 22.4074L9.79248 21.518L9.85422 20.6285L10.0209 19.7913L10.2947 18.9979L10.6672 18.2483L11.122 17.5635L11.6612 16.9413L12.2746 16.3943L12.9496 15.9328L13.6885 15.5549L14.4706 15.2772L15.2959 15.1081L16.1726 15.0455H16.6913Z" fill="white"/>
</mask>
<g mask="url(#mask2_32_431)">
<path fill-rule="evenodd" clip-rule="evenodd" d="M-425.725 1963.23H301.493V-193.65H-425.725V1963.23Z" fill="url(#paint1_linear_32_431)"/>
</g>
<path d="M16.6913 15.0455L17.568 15.1081L18.3933 15.2772L19.1754 15.5549L19.9143 15.9328L20.5893 16.3943L21.2026 16.9413L21.7419 17.5635L22.1967 18.2483L22.5692 18.9979L22.843 19.7913L23.0097 20.6285L23.0714 21.518L23.0097 22.4074L22.843 23.2426L22.5692 24.036L22.1967 24.7877L21.7419 25.4725L21.2026 26.0926L20.5893 26.6417L19.9143 27.1032L19.1754 27.4811L18.3933 27.7567L17.568 27.9279L16.6913 27.9884H16.1726L15.2959 27.9279L14.4706 27.7567L13.6885 27.4811L12.9496 27.1032L12.2746 26.6417L11.6612 26.0926L11.122 25.4725L10.6672 24.7877L10.2947 24.036L10.0209 23.2426L9.85422 22.4074L9.79248 21.518L9.85422 20.6285L10.0209 19.7913L10.2947 18.9979L10.6672 18.2483L11.122 17.5635L11.6612 16.9413L12.2746 16.3943L12.9496 15.9328L13.6885 15.5549L14.4706 15.2772L15.2959 15.1081L16.1726 15.0455H16.6913Z" fill="#0033FF"/>
<mask id="mask3_32_431" style="mask-type:luminance" maskUnits="userSpaceOnUse" x="29" y="17" width="47" height="4">
<path d="M31.4109 17.2023H74.2628L74.6621 17.2586L75.014 17.409L75.3166 17.6449L75.5491 17.9518L75.6973 18.3089L75.7508 18.7139L75.6973 19.1169L75.5491 19.476L75.3166 19.7808L75.014 20.0168L74.6621 20.1692L74.2628 20.2235H31.4109L31.0137 20.1692L30.6597 20.0168L30.3592 19.7808L30.1266 19.476L29.9784 19.1169L29.9229 18.7139L29.9784 18.3089L30.1266 17.9518L30.3592 17.6449L30.6597 17.409L31.0137 17.2586L31.4109 17.2023Z" fill="white"/>
</mask>
<g mask="url(#mask3_32_431)">
<path fill-rule="evenodd" clip-rule="evenodd" d="M27.3975 22.7854H78.276V14.6425H27.3975V22.7854Z" fill="white"/>
</g>
<mask id="mask4_32_431" style="mask-type:luminance" maskUnits="userSpaceOnUse" x="29" y="22" width="31" height="4">
<path d="M31.4109 22.8125H57.9873L58.3865 22.8668L58.7385 23.0171L59.041 23.2551L59.2736 23.56L59.4218 23.917L59.4773 24.3221L59.4218 24.7271L59.2736 25.0841L59.041 25.389L58.7385 25.6249L58.3865 25.7773L57.9873 25.8316H31.4109L31.0137 25.7773L30.6597 25.6249L30.3592 25.389L30.1266 25.0841L29.9784 24.7271L29.9229 24.3221L29.9784 23.917L30.1266 23.56L30.3592 23.2551L30.6597 23.0171L31.0137 22.8668L31.4109 22.8125Z" fill="white"/>
</mask>
<g mask="url(#mask4_32_431)">
<path fill-rule="evenodd" clip-rule="evenodd" d="M27.3975 28.3935H62.0005V20.2506H27.3975V28.3935Z" fill="white"/>
</g>
<mask id="mask5_32_431" style="mask-type:luminance" maskUnits="userSpaceOnUse" x="8" y="34" width="17" height="18">
<path d="M16.4319 34.8389L17.3004 34.8827L18.1278 35.008L18.9202 35.2063L19.6837 35.4819L20.4205 35.8327L21.1059 36.2399L21.7439 36.7096L22.3387 37.2379L22.88 37.8246L23.3574 38.451L23.7732 39.1233L24.1272 39.8436L24.4091 40.5932L24.6129 41.3719L24.7384 42.1841L24.7837 43.036L24.7384 43.8774L24.6149 44.6813L24.4153 45.4538L24.1395 46.1971L23.7917 46.9112L23.3842 47.5793L22.9149 48.2036L22.3819 48.7861L21.5957 49.4793L20.7272 50.066L19.7722 50.5504L19.0231 50.8323L18.241 51.039L17.426 51.1726L16.5698 51.2311L16.4319 51.2332L15.5634 51.1872L14.736 51.064L13.9436 50.8636L13.1801 50.588L12.4433 50.2393L11.7579 49.8301L11.1199 49.3624L10.5272 48.8321L9.98383 48.2454L9.50635 47.619L9.09061 46.9467L8.73662 46.2263L8.45466 45.4768L8.25296 44.698L8.12742 43.8858L8.08008 43.036L8.12536 42.1925L8.24884 41.3886L8.44848 40.6182L8.72427 39.8749L9.07209 39.1588L9.47959 38.4906L9.94884 37.8663L10.4819 37.2838L11.2681 36.5906L12.1366 36.0039L13.0916 35.5195L13.8428 35.2377L14.6228 35.031L15.4378 34.8973L16.294 34.8389H16.4319Z" fill="white"/>
</mask>
<g mask="url(#mask5_32_431)">
<path fill-rule="evenodd" clip-rule="evenodd" d="M24.7837 43.036L24.7384 42.1862L24.6129 41.374L24.4091 40.5952L24.1272 39.8457L23.7711 39.1254L23.3574 38.453L22.8779 37.8246L22.3366 37.24L21.7418 36.7096L21.1038 36.2419L20.4185 35.8327L19.6817 35.4819L18.9202 35.2063L18.1278 35.008L17.2984 34.8827L16.4319 34.8389L15.5654 34.8827L14.7381 35.008L13.9436 35.2063L13.1821 35.4819L12.4453 35.8327L11.76 36.2419L11.122 36.7096L10.5272 37.24L9.98589 37.8246L9.50841 38.453L9.09267 39.1254L8.73662 39.8457L8.45466 40.5952L8.25296 41.374L8.12742 42.1862L8.08008 43.036L8.12742 43.8858L8.25296 44.6959L8.45466 45.4747L8.73662 46.2243L9.09267 46.9446L9.50841 47.6169L9.98589 48.2454L10.5272 48.83L11.122 49.3603L11.76 49.828L12.4453 50.2372L13.1821 50.588L13.9436 50.8636L14.7381 51.064L15.5654 51.1872L16.4319 51.2332L17.2984 51.1872L18.1278 51.064L18.9202 50.8636L19.6817 50.588L20.4185 50.2372L21.1038 49.828L21.7418 49.3603L22.3366 48.83L22.8779 48.2454L23.3574 47.6169L23.7711 46.9446L24.1272 46.2243L24.4091 45.4747L24.6129 44.6959L24.7384 43.8858L24.7837 43.036Z" fill="white"/>
</g>
<mask id="mask6_32_431" style="mask-type:luminance" maskUnits="userSpaceOnUse" x="8" y="34" width="17" height="18">
<path d="M16.4319 34.8389L17.3004 34.8827L18.1278 35.008L18.9202 35.2063L19.6837 35.4819L20.4205 35.8327L21.1059 36.2399L21.7439 36.7096L22.3387 37.2379L22.88 37.8246L23.3574 38.451L23.7732 39.1233L24.1272 39.8436L24.4091 40.5932L24.6129 41.3719L24.7384 42.1841L24.7837 43.036L24.7384 43.8774L24.6149 44.6813L24.4153 45.4538L24.1395 46.1971L23.7917 46.9112L23.3842 47.5793L22.9149 48.2036L22.3819 48.7861L21.5957 49.4793L20.7272 50.066L19.7722 50.5504L19.0231 50.8323L18.241 51.039L17.426 51.1726L16.5698 51.2311L16.4319 51.2332L15.5634 51.1872L14.736 51.064L13.9436 50.8636L13.1801 50.588L12.4433 50.2393L11.7579 49.8301L11.1199 49.3624L10.5272 48.8321L9.98383 48.2454L9.50635 47.619L9.09061 46.9467L8.73662 46.2263L8.45466 45.4768L8.25296 44.698L8.12742 43.8858L8.08008 43.036L8.12536 42.1925L8.24884 41.3886L8.44848 40.6182L8.72427 39.8749L9.07209 39.1588L9.47959 38.4906L9.94884 37.8663L10.4819 37.2838L11.2681 36.5906L12.1366 36.0039L13.0916 35.5195L13.8428 35.2377L14.6228 35.031L15.4378 34.8973L16.294 34.8389H16.4319Z" fill="white"/>
</mask>
<g mask="url(#mask6_32_431)">
<path d="M24.7837 43.036L24.7384 42.1862L24.6129 41.374L24.4091 40.5952L24.1272 39.8457L23.7711 39.1254L23.3574 38.453L22.8779 37.8246L22.3366 37.24L21.7418 36.7096L21.1038 36.2419L20.4185 35.8327L19.6817 35.4819L18.9202 35.2063L18.1278 35.008L17.2984 34.8827L16.4319 34.8389L15.5654 34.8827L14.7381 35.008L13.9436 35.2063L13.1821 35.4819L12.4453 35.8327L11.76 36.2419L11.122 36.7096L10.5272 37.24L9.98589 37.8246L9.50841 38.453L9.09267 39.1254L8.73662 39.8457L8.45466 40.5952L8.25296 41.374L8.12742 42.1862L8.08008 43.036L8.12742 43.8858L8.25296 44.6959L8.45466 45.4747L8.73662 46.2243L9.09267 46.9446L9.50841 47.6169L9.98589 48.2454L10.5272 48.83L11.122 49.3603L11.76 49.828L12.4453 50.2372L13.1821 50.588L13.9436 50.8636L14.7381 51.064L15.5654 51.1872L16.4319 51.2332L17.2984 51.1872L18.1278 51.064L18.9202 50.8636L19.6817 50.588L20.4185 50.2372L21.1038 49.828L21.7418 49.3603L22.3366 48.83L22.8779 48.2454L23.3574 47.6169L23.7711 46.9446L24.1272 46.2243L24.4091 45.4747L24.6129 44.6959L24.7384 43.8858L24.7837 43.036Z" stroke="#E4EBFF" stroke-width="2"/>
</g>
<mask id="mask7_32_431" style="mask-type:luminance" maskUnits="userSpaceOnUse" x="9" y="36" width="15" height="14">
<path d="M16.6913 36.5635L17.568 36.6261L18.3933 36.7952L19.1754 37.0729L19.9143 37.4508L20.5893 37.9123L21.2026 38.4593L21.7419 39.0815L22.1967 39.7642L22.5692 40.5159L22.843 41.3093L23.0097 42.1466L23.0714 43.036L23.0097 43.9234L22.843 44.7606L22.5692 45.554L22.1967 46.3057L21.7419 46.9884L21.2026 47.6106L20.5893 48.1597L19.9143 48.6212L19.1754 48.9991L18.3933 49.2747L17.568 49.4459L16.6913 49.5064H16.1726L15.2959 49.4459L14.4706 49.2747L13.6885 48.9991L12.9496 48.6212L12.2746 48.1597L11.6612 47.6106L11.122 46.9884L10.6672 46.3057L10.2947 45.554L10.0209 44.7606L9.85422 43.9234L9.79248 43.036L9.85422 42.1466L10.0209 41.3093L10.2947 40.5159L10.6672 39.7642L11.122 39.0815L11.6612 38.4593L12.2746 37.9123L12.9496 37.4508L13.6885 37.0729L14.4706 36.7952L15.2959 36.6261L16.1726 36.5635H16.6913Z" fill="white"/>
</mask>
<g mask="url(#mask7_32_431)">
<path fill-rule="evenodd" clip-rule="evenodd" d="M-425.725 1963.23H301.493V-193.65H-425.725V1963.23Z" fill="url(#paint2_linear_32_431)"/>
</g>
<path d="M16.6913 36.5635L17.568 36.6261L18.3933 36.7952L19.1754 37.0729L19.9143 37.4508L20.5893 37.9123L21.2026 38.4593L21.7419 39.0815L22.1967 39.7642L22.5692 40.5159L22.843 41.3093L23.0097 42.1466L23.0714 43.036L23.0097 43.9234L22.843 44.7606L22.5692 45.554L22.1967 46.3057L21.7419 46.9884L21.2026 47.6106L20.5893 48.1597L19.9143 48.6212L19.1754 48.9991L18.3933 49.2747L17.568 49.4459L16.6913 49.5064H16.1726L15.2959 49.4459L14.4706 49.2747L13.6885 48.9991L12.9496 48.6212L12.2746 48.1597L11.6612 47.6106L11.122 46.9884L10.6672 46.3057L10.2947 45.554L10.0209 44.7606L9.85422 43.9234L9.79248 43.036L9.85422 42.1466L10.0209 41.3093L10.2947 40.5159L10.6672 39.7642L11.122 39.0815L11.6612 38.4593L12.2746 37.9123L12.9496 37.4508L13.6885 37.0729L14.4706 36.7952L15.2959 36.6261L16.1726 36.5635H16.6913Z" fill="#F99C34"/>
<mask id="mask8_32_431" style="mask-type:luminance" maskUnits="userSpaceOnUse" x="29" y="38" width="47" height="4">
<path d="M31.4109 38.7203H74.2628L74.6621 38.7767L75.014 38.927L75.3166 39.163L75.5491 39.4699L75.6973 39.8269L75.7508 40.232L75.6973 40.635L75.5491 40.9941L75.3166 41.2989L75.014 41.5348L74.6621 41.6873L74.2628 41.7415H31.4109L31.0137 41.6873L30.6597 41.5348L30.3592 41.2989L30.1266 40.9941L29.9784 40.635L29.9229 40.232L29.9784 39.8269L30.1266 39.4699L30.3592 39.163L30.6597 38.927L31.0137 38.7767L31.4109 38.7203Z" fill="white"/>
</mask>
<g mask="url(#mask8_32_431)">
<path fill-rule="evenodd" clip-rule="evenodd" d="M27.3975 44.3034H78.276V36.1584H27.3975V44.3034Z" fill="white"/>
</g>
<mask id="mask9_32_431" style="mask-type:luminance" maskUnits="userSpaceOnUse" x="29" y="44" width="31" height="4">
<path d="M31.4109 44.3305H57.9873L58.3865 44.3848L58.7385 44.5351L59.041 44.7711L59.2736 45.078L59.4218 45.435L59.4773 45.8401L59.4218 46.243L59.2736 46.6022L59.041 46.907L58.7385 47.1429L58.3865 47.2953L57.9873 47.3496H31.4109L31.0137 47.2953L30.6597 47.1429L30.3592 46.907L30.1266 46.6022L29.9784 46.243L29.9229 45.8401L29.9784 45.435L30.1266 45.078L30.3592 44.7711L30.6597 44.5351L31.0137 44.3848L31.4109 44.3305Z" fill="white"/>
</mask>
<g mask="url(#mask9_32_431)">
<path fill-rule="evenodd" clip-rule="evenodd" d="M27.3975 49.9115H62.0005V41.7686H27.3975V49.9115Z" fill="white"/>
</g>
<defs>
<linearGradient id="paint0_linear_32_431" x1="2.40113" y1="5.50016" x2="82.5988" y2="5.50016" gradientUnits="userSpaceOnUse">
<stop stop-color="#D5E5F6"/>
<stop offset="1" stop-color="#DFE2EF"/>
</linearGradient>
<linearGradient id="paint1_linear_32_431" x1="9.79324" y1="15.0468" x2="9.79324" y2="539.666" gradientUnits="userSpaceOnUse">
<stop stop-color="#1B90FA"/>
<stop offset="1" stop-color="#416EC8"/>
</linearGradient>
<linearGradient id="paint2_linear_32_431" x1="9.79323" y1="36.5642" x2="9.79323" y2="561.183" gradientUnits="userSpaceOnUse">
<stop stop-color="#FFD97D"/>
<stop offset="1" stop-color="#FA95AA"/>
</linearGradient>
</defs>
</svg>
