<svg width="85" height="54" viewBox="0 0 85 54" fill="none" xmlns="http://www.w3.org/2000/svg">
<mask id="mask0_32_704" style="mask-type:luminance" maskUnits="userSpaceOnUse" x="0" y="0" width="85" height="54">
<path d="M2.16783 0.167725L1.62892 0.241697L1.1537 0.443889L0.747076 0.759505L0.433531 1.16882L0.232667 1.64718L0.15918 2.18718V51.8129L0.232667 52.3529L0.433531 52.8313L0.747076 53.2406L1.1537 53.5562L1.62892 53.7584L2.16783 53.8324H82.8835L83.42 53.7584L83.8952 53.5562L84.3018 53.2406L84.6154 52.8313L84.8162 52.3529L84.8897 51.8129V2.18718L84.8162 1.64718L84.6154 1.16882L84.3018 0.759505L83.8952 0.443889L83.42 0.241697L82.8835 0.167725H2.16783Z" fill="white"/>
</mask>
<g mask="url(#mask0_32_704)">
<path fill-rule="evenodd" clip-rule="evenodd" d="M-2.34912 56.3573H87.3981V-2.35718H-2.34912V56.3573Z" fill="#EDF6FD"/>
</g>
<path fill-rule="evenodd" clip-rule="evenodd" d="M2.16793 0.167725L1.62903 0.241697L1.15381 0.443889L0.747182 0.759506L0.433637 1.16882L0.232772 1.64718L0.159285 2.18718L0.15918 7.84051H84.8897L84.8898 2.18718L84.8164 1.64718L84.6155 1.16882L84.3019 0.759506L83.8953 0.443889L83.4201 0.241697L82.8836 0.167725H2.16793Z" fill="url(#paint0_linear_32_704)"/>
<path d="M11.3046 28.1367L11.0254 28.1934L10.8 28.3463L10.6481 28.5732L10.5918 28.8543V49.9044L10.6481 50.188L10.8 50.4123L11.0254 50.5652L11.3046 50.6244H13.9967L14.2759 50.5652L14.5013 50.4123L14.6532 50.188L14.7095 49.9044V28.8543L14.6532 28.5732L14.5013 28.3463L14.2759 28.1934L13.9967 28.1367H11.3046Z" fill="white"/>
<path d="M23.0431 28.1367L22.7639 28.1934L22.541 28.3463L22.3891 28.5732L22.3303 28.8543V49.9044L22.3891 50.188L22.541 50.4123L22.7639 50.5652L23.0431 50.6244H25.7377L26.0169 50.5652L26.2423 50.4123L26.3942 50.188L26.4505 49.9044V28.8543L26.3942 28.5732L26.2423 28.3463L26.0169 28.1934L25.7377 28.1367H23.0431Z" fill="white"/>
<path d="M34.2255 28.1367L33.9463 28.1934L33.7209 28.3463L33.569 28.5732L33.5127 28.8543V49.9044L33.569 50.188L33.7209 50.4123L33.9463 50.5652L34.2255 50.6244H36.9176L37.1968 50.5652L37.4222 50.4123L37.5741 50.188L37.6304 49.9044V28.8543L37.5741 28.5732L37.4222 28.3463L37.1968 28.1934L36.9176 28.1367H34.2255Z" fill="white"/>
<path d="M45.9638 28.1367L45.6846 28.1934L45.4592 28.3463L45.3073 28.5732L45.251 28.8543V49.9044L45.3073 50.188L45.4592 50.4123L45.6846 50.5652L45.9638 50.6244H48.6559L48.9376 50.5652L49.1605 50.4123L49.3124 50.188L49.3712 49.9044V28.8543L49.3124 28.5732L49.1605 28.3463L48.9376 28.1934L48.6559 28.1367H45.9638Z" fill="white"/>
<path d="M57.1459 28.1367L56.8642 28.1934L56.6413 28.3463L56.4895 28.5732L56.4307 28.8543V49.9044L56.4895 50.188L56.6413 50.4123L56.8642 50.5652L57.1459 50.6244H59.838L60.1173 50.5652L60.3426 50.4123L60.4945 50.188L60.5508 49.9044V28.8543L60.4945 28.5732L60.3426 28.3463L60.1173 28.1934L59.838 28.1367H57.1459Z" fill="white"/>
<path d="M68.8842 28.1367L68.605 28.1934L68.3796 28.3463L68.2277 28.5732L68.1714 28.8543V49.9044L68.2277 50.188L68.3796 50.4123L68.605 50.5652L68.8842 50.6244H71.5763L71.858 50.5652L72.0809 50.4123L72.2328 50.188L72.2916 49.9044V28.8543L72.2328 28.5732L72.0809 28.3463L71.858 28.1934L71.5763 28.1367H68.8842Z" fill="white"/>
<path fill-rule="evenodd" clip-rule="evenodd" d="M7.88771 46.6398L7.58887 46.2502C21.6861 35.2505 31.7416 39.8639 39.0854 43.2321C42.7647 44.9212 45.6723 46.2551 48.166 45.3625C52.4503 43.9743 56.1809 39.3042 59.7892 34.7844C64.1861 29.2759 68.7325 23.5825 74.4302 23.5825V24.0757C68.9677 24.0757 64.4948 29.6754 60.1713 35.0927C56.5165 39.6691 52.7418 44.3984 48.3227 45.831C45.6478 46.7853 42.5124 45.3477 38.8821 43.6809C31.6534 40.3644 21.7523 35.8225 7.88771 46.6398Z" fill="#D5E5F6" stroke="#D5E5F6" stroke-linejoin="round"/>
<path fill-rule="evenodd" clip-rule="evenodd" d="M7.92434 46.6052L7.552 46.2871C20.9413 30.383 31.7439 34.4885 39.6315 37.4869C43.0168 38.7715 45.9416 39.8836 48.2418 39.0526C52.1047 38.0047 55.6346 33.5589 59.3726 28.8493C63.9509 23.0819 68.6859 17.1198 74.4301 17.1198V17.6129C68.921 17.6129 64.2619 23.4814 59.7547 29.1576C55.9653 33.9313 52.3864 38.4411 48.3863 39.5236C45.9367 40.4088 42.9336 39.2672 39.4576 37.948C31.7072 35.0014 21.0908 30.9674 7.92434 46.6052Z" fill="#D5E5F6" stroke="#D5E5F6" stroke-linejoin="round"/>
<path fill-rule="evenodd" clip-rule="evenodd" d="M7 14.5C7 15.3284 7.67157 16 8.5 16H35.5C36.3284 16 37 15.3284 37 14.5C37 13.6716 36.3284 13 35.5 13H8.5C7.67157 13 7 13.6716 7 14.5Z" fill="white"/>
<path d="M8.52496 20L8.10437 20.0579L7.75018 20.2073L7.44765 20.439L7.20169 20.75L7.05657 21.1006L7 21.5L7.05657 21.8994L7.20169 22.247L7.44765 22.561L7.75018 22.7927L8.10437 22.939L8.52496 23H49.475L49.8956 22.939L50.2523 22.7927L50.5548 22.561L50.7983 22.247L50.9434 21.8994L51 21.5L50.9434 21.1006L50.7983 20.75L50.5548 20.439L50.2523 20.2073L49.8956 20.0579L49.475 20H8.52496Z" fill="white"/>
<path d="M68 17.5014L68.0759 18.3219L68.281 19.0749L68.6154 19.7718L69.0621 20.404L69.596 20.9379L70.2282 21.3874L70.9251 21.719L71.6781 21.9241L72.4986 22L73.3219 21.9241L74.0749 21.719L74.7718 21.3874L75.4012 20.9379L75.9379 20.404L76.3846 19.7718L76.719 19.0749L76.9241 18.3219L77 17.5014L76.9241 16.6781L76.719 15.9251L76.3846 15.2282L75.9379 14.596L75.4012 14.0621L74.7718 13.6154L74.0749 13.281L73.3219 13.0759L72.4986 13L71.6781 13.0759L70.9251 13.281L70.2282 13.6154L69.596 14.0621L69.0621 14.596L68.6154 15.2282L68.281 15.9251L68.0759 16.6781L68 17.5014Z" fill="#F99C34"/>
<path d="M70 17.5008L70.0421 17.9566L70.1561 18.375L70.3419 18.7621L70.5901 19.1133L70.8867 19.4099L71.2379 19.6597L71.625 19.8439L72.0434 19.9579L72.4992 20L72.9566 19.9579L73.375 19.8439L73.7621 19.6597L74.1118 19.4099L74.4099 19.1133L74.6581 18.7621L74.8439 18.375L74.9579 17.9566L75 17.5008L74.9579 17.0434L74.8439 16.625L74.6581 16.2379L74.4099 15.8867L74.1118 15.5901L73.7621 15.3419L73.375 15.1561L72.9566 15.0421L72.4992 15L72.0434 15.0421L71.625 15.1561L71.2379 15.3419L70.8867 15.5901L70.5901 15.8867L70.3419 16.2379L70.1561 16.625L70.0421 17.0434L70 17.5008Z" fill="white"/>
<defs>
<linearGradient id="paint0_linear_32_704" x1="2.5527" y1="4.00423" x2="82.4962" y2="4.00423" gradientUnits="userSpaceOnUse">
<stop stop-color="#D5E5F6"/>
<stop offset="1" stop-color="#DFE2EF"/>
</linearGradient>
</defs>
</svg>
