<svg width="30" height="30" viewBox="0 0 30 30" fill="none" xmlns="http://www.w3.org/2000/svg">
<rect width="30" height="30" fill="white" fill-opacity="0.01"/>
<path d="M14.8611 5.39057C15.8495 4.73163 17.1336 4.71797 18.1358 5.35573L22.291 7.99994H23.9998C24.5521 7.99994 24.9998 8.44766 24.9998 8.99994V17.9999C24.9998 18.5522 24.5521 18.9999 23.9998 18.9999H22.4801C22.5396 19.9472 22.0933 20.9102 21.1955 21.4489L16.1021 24.505C15.4591 24.8907 14.6609 24.8817 14.0314 24.4974C13.3311 25.1167 12.2531 25.1849 11.471 24.5704L6.33028 20.5312C5.56387 19.9291 5.37006 18.9003 5.76579 18.0847C5.28248 17.7057 5 17.1254 5 16.5109V9C5 8.44772 5.44772 8 6 8H10.9469L14.8611 5.39057ZM7.17264 16.6452L7.86467 16.0397C9.09488 14.9632 10.9604 15.0698 12.06 16.2794L14.7622 19.2518C15.6317 20.2083 15.7903 21.6135 15.1579 22.739L20.1665 19.7339C20.4479 19.5651 20.5497 19.2276 20.4448 18.9433L16.0177 12.7455C15.769 12.3974 15.3264 12.246 14.9166 12.3689L12.4313 13.1145C11.3742 13.4316 10.2284 13.1427 9.44799 12.3624L9.15522 12.0696C8.58721 11.5016 8.44032 10.6932 8.67935 10H7V16.5109L7.17264 16.6452ZM17.0621 7.04306C16.728 6.83047 16.3 6.83502 15.9705 7.05467L10.5694 10.6554L10.8622 10.9481C11.1223 11.2083 11.5043 11.3046 11.8567 11.1989L14.3419 10.4533C15.5713 10.0845 16.8992 10.5386 17.6452 11.583L21.5144 16.9999H22.9998V9.99994H22.291C21.9106 9.99994 21.5381 9.89148 21.2172 9.68727L17.0621 7.04306ZM9.18168 17.5448L7.56593 18.9586L12.7067 22.9978L13.4106 21.7659C13.6256 21.3897 13.5738 20.9178 13.2823 20.5971L10.5801 17.6247C10.2136 17.2215 9.59175 17.186 9.18168 17.5448Z" fill="#F99C34"/>
</svg>
