<svg width="20" height="20" viewBox="0 0 20 20" fill="none" xmlns="http://www.w3.org/2000/svg">
<circle cx="10" cy="10" r="10" fill="#00DA30"/>
<path fill-rule="evenodd" clip-rule="evenodd" d="M14.8563 7.31136C15.0479 7.12575 15.0479 6.82482 14.8563 6.63921C14.6646 6.4536 14.3538 6.4536 14.1621 6.63921L8.26175 12.3526L5.83792 10.0056C5.64623 9.81995 5.33545 9.81995 5.14376 10.0056C4.95208 10.1912 4.95208 10.4921 5.14376 10.6777L7.91461 13.3608C8.01272 13.4558 8.14202 13.5021 8.27058 13.4999C8.39326 13.4978 8.51528 13.4514 8.60889 13.3608L14.8563 7.31136Z" fill="white"/>
<path d="M14.8563 6.63921L14.5084 6.99841L14.8563 6.63921ZM14.8563 7.31136L15.2041 7.67056V7.67056L14.8563 7.31136ZM14.1621 6.63921L13.8143 6.28001V6.28001L14.1621 6.63921ZM8.26175 12.3526L7.91393 12.7118L8.26175 13.0486L8.60957 12.7118L8.26175 12.3526ZM5.83792 10.0056L6.18573 9.64636L5.83792 10.0056ZM5.14376 10.0056L5.49158 10.3648L5.14376 10.0056ZM5.14376 10.6777L5.49158 10.3185L5.49158 10.3185L5.14376 10.6777ZM7.91461 13.3608L7.5668 13.72L7.5668 13.72L7.91461 13.3608ZM8.27058 13.4999L8.26199 13L8.26186 13L8.27058 13.4999ZM8.60889 13.3608L8.95671 13.72H8.95671L8.60889 13.3608ZM14.5084 6.99841C14.5074 6.99742 14.5049 6.99445 14.5029 6.98958C14.501 6.98502 14.5 6.98013 14.5 6.97529C14.5 6.97044 14.501 6.96555 14.5029 6.96099C14.5049 6.95612 14.5074 6.95315 14.5084 6.95216L15.2041 7.67056C15.5987 7.28847 15.5987 6.6621 15.2041 6.28001L14.5084 6.99841ZM14.5099 6.99841C14.509 6.99932 14.5078 6.99998 14.5072 7.00021C14.507 7.0003 14.5077 7 14.5092 7C14.5106 7 14.5114 7.0003 14.5111 7.00021C14.5106 6.99998 14.5094 6.99932 14.5084 6.99841L15.2041 6.28001C14.8185 5.90666 14.1999 5.90666 13.8143 6.28001L14.5099 6.99841ZM8.60957 12.7118L14.5099 6.99841L13.8143 6.28001L7.91393 11.9934L8.60957 12.7118ZM5.4901 10.3648L7.91393 12.7118L8.60957 11.9934L6.18573 9.64636L5.4901 10.3648ZM5.49158 10.3648C5.49063 10.3657 5.48946 10.3663 5.48889 10.3666C5.48865 10.3667 5.48938 10.3664 5.49084 10.3664C5.4923 10.3664 5.49303 10.3667 5.49279 10.3666C5.49222 10.3663 5.49105 10.3657 5.4901 10.3648L6.18573 9.64636C5.80017 9.27302 5.18151 9.27302 4.79595 9.64636L5.49158 10.3648ZM5.49158 10.3185C5.49259 10.3195 5.49509 10.3225 5.49713 10.3274C5.49904 10.3319 5.5 10.3368 5.5 10.3416C5.5 10.3465 5.49904 10.3514 5.49713 10.3559C5.49509 10.3608 5.49259 10.3638 5.49158 10.3648L4.79595 9.64636C4.40135 10.0285 4.40135 10.6548 4.79595 11.0369L5.49158 10.3185ZM8.26243 13.0016L5.49158 10.3185L4.79595 11.0369L7.5668 13.72L8.26243 13.0016ZM8.26186 13C8.26035 13 8.25954 12.9997 8.25971 12.9997C8.26024 13 8.26145 13.0006 8.26243 13.0016L7.5668 13.72C7.76586 13.9127 8.02581 14.0042 8.2793 13.9998L8.26186 13ZM8.26107 13.0016C8.26198 13.0007 8.26314 13 8.26374 12.9998C8.26404 12.9996 8.2634 12.9999 8.26199 13L8.27918 13.9998C8.52131 13.9957 8.7668 13.9038 8.95671 13.72L8.26107 13.0016ZM14.5084 6.95216L8.26107 13.0016L8.95671 13.72L15.2041 7.67056L14.5084 6.95216Z" fill="white"/>
</svg>

