<svg width="43" height="43" viewBox="0 0 43 43" fill="none" xmlns="http://www.w3.org/2000/svg">
<path d="M17.08 19.5102L22.15 28.2702C22.2475 28.4983 22.3925 28.7031 22.5752 28.8709C22.7579 29.0388 22.9741 29.1658 23.2097 29.2437C23.4452 29.3216 23.6947 29.3485 23.9414 29.3227C24.1881 29.2968 24.4266 29.2188 24.6409 29.0938C24.8552 28.9688 25.0404 28.7997 25.1844 28.5976C25.3283 28.3956 25.4277 28.1652 25.4758 27.9218C25.524 27.6784 25.5198 27.4276 25.4636 27.186C25.4075 26.9443 25.3006 26.7174 25.15 26.5202L18.61 15.1102C18.4544 14.8513 18.2346 14.6371 17.9717 14.4884C17.7089 14.3397 17.412 14.2616 17.11 14.2616C16.808 14.2616 16.5111 14.3397 16.2483 14.4884C15.9854 14.6371 15.7656 14.8513 15.61 15.1102L8.97 26.5202C8.80717 26.7169 8.68909 26.9467 8.62396 27.1936C8.55882 27.4405 8.54819 27.6986 8.59281 27.95C8.63742 28.2014 8.73621 28.4401 8.88232 28.6496C9.02843 28.859 9.21836 29.0341 9.43892 29.1628C9.65949 29.2914 9.90541 29.3705 10.1596 29.3946C10.4138 29.4188 10.6702 29.3872 10.9111 29.3023C11.1519 29.2174 11.3713 29.0811 11.5542 28.9029C11.737 28.7246 11.8789 28.5088 11.97 28.2702L17.08 19.5102ZM0 0.200195H42.12V23.8802L37.06 15.1102C36.9064 14.8489 36.6872 14.6322 36.4241 14.4817C36.161 14.3312 35.8631 14.252 35.56 14.252C35.2569 14.252 34.959 14.3312 34.6959 14.4817C34.4328 14.6322 34.2136 14.8489 34.06 15.1102L27.43 26.5202C27.2672 26.7169 27.1491 26.9467 27.084 27.1936C27.0188 27.4405 27.0082 27.6986 27.0528 27.95C27.0974 28.2014 27.1962 28.4401 27.3423 28.6496C27.4884 28.859 27.6784 29.0341 27.8989 29.1628C28.1195 29.2914 28.3654 29.3705 28.6196 29.3946C28.8738 29.4188 29.1302 29.3872 29.3711 29.3023C29.6119 29.2174 29.8313 29.0811 30.0142 28.9029C30.197 28.7246 30.3389 28.5088 30.43 28.2702L35.49 19.5102L40.55 28.2702C40.7028 28.539 40.9238 28.7628 41.1907 28.919C41.4575 29.0753 41.7608 29.1584 42.07 29.1602V38.8002L37.06 30.0002C36.9044 29.7413 36.6846 29.5271 36.4217 29.3784C36.1589 29.2297 35.862 29.1516 35.56 29.1516C35.258 29.1516 34.9611 29.2297 34.6983 29.3784C34.4354 29.5271 34.2156 29.7413 34.06 30.0002L27.43 41.4402C27.2745 41.7075 27.1917 42.0109 27.19 42.3202H25.43C25.4283 42.0109 25.3455 41.7075 25.19 41.4402L18.61 30.0002C18.4526 29.7437 18.232 29.5319 17.9694 29.385C17.7068 29.238 17.4109 29.1608 17.11 29.1608C16.8091 29.1608 16.5132 29.238 16.2506 29.385C15.988 29.5319 15.7674 29.7437 15.61 30.0002L8.97 41.4402C8.8129 41.7064 8.73324 42.0112 8.74 42.3202H0V0.200195ZM40.09 42.3202H30.98L35.54 34.4402L40.09 42.3202ZM21.64 42.3202H12.53L17.08 34.4402L21.64 42.3202Z" fill="#F99C34"/>
</svg>
